<svg width="61" height="89" viewBox="0 0 61 89" fill="none" xmlns="http://www.w3.org/2000/svg">
<g style="mix-blend-mode:screen">
<g style="mix-blend-mode:screen">
<g style="mix-blend-mode:screen">
<g style="mix-blend-mode:screen">
<path d="M0.1692 30.0056C-0.643689 35.0093 1.58026 39.7144 4.53215 43.6066C7.52652 47.5413 11.5898 50.7492 16.5935 51.476C17.4063 51.6046 17.7485 50.3635 16.9379 50.236C12.7034 49.4954 8.90194 47.1902 6.28768 43.7777C3.25082 40.1036 0.598608 35.3089 1.4115 30.3903C1.54009 29.5349 0.298939 29.1928 0.171495 30.0056H0.1692Z" fill="#161616"/>
</g>
</g>
</g>
<g style="mix-blend-mode:screen">
<g style="mix-blend-mode:screen">
<g style="mix-blend-mode:screen">
<path d="M1.28061 30.0049C2.51426 29.0631 3.94888 28.419 5.4725 28.1231C6.28539 27.952 5.94324 26.712 5.12805 26.8831C3.39882 27.2355 1.77417 27.982 0.380446 29.0646C-0.261369 29.6203 0.636498 30.5193 1.27831 30.0061L1.28061 30.0049Z" fill="#161616"/>
</g>
</g>
</g>
<g style="mix-blend-mode:screen">
<g style="mix-blend-mode:screen">
<g style="mix-blend-mode:screen">
<path d="M5.68607 28.2091C9.49218 29.2355 12.9573 33.6835 15.1388 36.7628C17.3888 39.9649 19.1207 43.5013 20.271 47.242C20.5282 48.0124 21.7636 47.7127 21.511 46.8975C20.2095 42.6045 18.1527 38.578 15.4373 35.0073C13.1272 31.9704 9.83432 27.9933 6.02247 26.9703C5.85804 26.9246 5.6822 26.9461 5.53363 27.0301C5.38506 27.114 5.27594 27.2536 5.23026 27.418C5.18459 27.5825 5.2061 27.7583 5.29008 27.9069C5.37405 28.0554 5.51361 28.1646 5.67804 28.2103L5.68607 28.2091Z" fill="#161616"/>
</g>
</g>
</g>
<g style="mix-blend-mode:screen">
<g style="mix-blend-mode:screen">
<g style="mix-blend-mode:screen">
<path d="M16.8508 51.561C18.4951 50.7433 19.9404 49.5754 21.0852 48.1395C21.5984 47.4977 20.7005 46.5998 20.1873 47.2417C19.1329 48.5925 17.7881 49.6889 16.2526 50.4496C15.4397 50.8342 16.124 51.9043 16.8519 51.5621L16.8508 51.561Z" fill="#161616"/>
</g>
</g>
</g>
<g style="mix-blend-mode:screen">
<g style="mix-blend-mode:screen">
<g style="mix-blend-mode:screen">
<path d="M3.29098 28.2986C3.16239 33.2172 5.89957 38.1359 8.80898 41.942C11.5462 45.5346 15.3959 48.2718 20.101 48.1868C20.2646 48.177 20.4183 48.1051 20.5307 47.9858C20.643 47.8666 20.7056 47.7089 20.7056 47.545C20.7056 47.3811 20.643 47.2234 20.5307 47.1041C20.4183 46.9848 20.2646 46.913 20.101 46.9032C15.3534 46.9893 11.6748 43.9088 9.10865 40.1877C6.75609 36.7237 4.48966 32.6168 4.57462 28.2974C4.56483 28.1338 4.49295 27.9802 4.37366 27.8678C4.25437 27.7554 4.09668 27.6929 3.9328 27.6929C3.76893 27.6929 3.61123 27.7554 3.49194 27.8678C3.37266 27.9802 3.30077 28.1338 3.29098 28.2974V28.2986Z" fill="#161616"/>
</g>
</g>
</g>
<g style="mix-blend-mode:screen">
<g style="mix-blend-mode:screen">
<g style="mix-blend-mode:screen">
<path d="M1.92246 35.8649C2.56221 35.1045 3.34767 34.4799 4.23255 34.0278C4.95932 33.6834 4.31865 32.5731 3.59073 32.9153C2.59575 33.385 1.71884 34.072 1.02461 34.9257C0.511391 35.5675 1.40924 36.5078 1.92246 35.8672V35.8649Z" fill="#161616"/>
</g>
</g>
</g>
<g style="mix-blend-mode:screen">
<g style="mix-blend-mode:screen">
<g style="mix-blend-mode:screen">
<path d="M1.23816 32.9553C2.01478 32.36 2.90125 31.9238 3.84675 31.6717C4.01119 31.626 4.15074 31.5169 4.23472 31.3683C4.31869 31.2197 4.34021 31.0439 4.29453 30.8795C4.24885 30.715 4.13973 30.5755 3.99116 30.4915C3.84259 30.4075 3.66674 30.386 3.5023 30.4317C2.4604 30.7351 1.47719 31.2121 0.594056 31.8428C-0.0477585 32.3135 0.551564 33.4249 1.23586 32.9553H1.23816Z" fill="#161616"/>
</g>
</g>
</g>
<g style="mix-blend-mode:screen">
<g style="mix-blend-mode:screen">
<g style="mix-blend-mode:screen">
<path d="M5.77214 43.778C6.66999 43.0512 7.60918 42.3233 8.50933 41.5965C9.15114 41.0833 8.25215 40.1855 7.61148 40.6987C6.71363 41.4255 5.77444 42.1534 4.87429 42.8802C4.1854 43.3934 5.13032 44.2912 5.77214 43.778Z" fill="#161616"/>
</g>
</g>
</g>
<g style="mix-blend-mode:screen">
<g style="mix-blend-mode:screen">
<g style="mix-blend-mode:screen">
<path d="M8.33954 46.6003L10.521 44.932C10.5941 44.8868 10.6575 44.8276 10.7077 44.7578C10.7579 44.6881 10.7938 44.6091 10.8135 44.5255C10.8332 44.4419 10.8362 44.3552 10.8223 44.2704C10.8085 44.1856 10.7781 44.1043 10.7329 44.0313C10.6876 43.9582 10.6284 43.8948 10.5587 43.8446C10.489 43.7944 10.41 43.7585 10.3264 43.7388C10.2427 43.7191 10.156 43.7161 10.0712 43.73C9.98644 43.7438 9.90518 43.7742 9.83213 43.8194L7.65066 45.4877C7.57761 45.5329 7.51417 45.5921 7.46399 45.6619C7.41381 45.7316 7.37786 45.8106 7.35819 45.8942C7.33852 45.9778 7.33553 46.0645 7.34936 46.1493C7.3632 46.2341 7.39358 46.3154 7.43881 46.3884C7.48405 46.4615 7.54323 46.5249 7.61297 46.5751C7.68272 46.6253 7.76168 46.6612 7.84532 46.6809C7.92896 46.7006 8.01565 46.7036 8.10045 46.6897C8.18525 46.6759 8.26649 46.6455 8.33954 46.6003V46.6003Z" fill="#161616"/>
</g>
</g>
</g>
<g style="mix-blend-mode:screen">
<g style="mix-blend-mode:screen">
<g style="mix-blend-mode:screen">
<path d="M12.869 49.808C13.5957 49.0813 14.3616 48.397 15.0929 47.669C15.6923 47.1133 14.7933 46.1765 14.1951 46.7712C13.4683 47.498 12.7025 48.1823 11.9711 48.9102C11.3729 49.4659 12.2708 50.4028 12.869 49.808Z" fill="#161616"/>
</g>
</g>
</g>
<g style="mix-blend-mode:screen">
<g style="mix-blend-mode:screen">
<g style="mix-blend-mode:screen">
<path d="M13.3867 41.2532C14.1135 42.1085 14.7978 42.9214 15.5257 43.7791C16.0389 44.4209 16.9804 43.4794 16.4235 42.8812C15.6968 42.0259 15.0124 41.213 14.2845 40.3553C13.7713 39.7135 12.8735 40.655 13.3867 41.2532Z" fill="#161616"/>
</g>
</g>
</g>
<g style="mix-blend-mode:screen">
<g style="mix-blend-mode:screen">
<g style="mix-blend-mode:screen">
<path d="M41.9561 21.3224C38.1925 18.3716 35.8824 9.98786 39.0479 6.01067C42.769 1.43415 50.1688 -0.533771 54.3182 4.34241C57.7822 8.40571 57.9923 14.7779 55.3872 19.3545C54.7188 20.648 53.6964 21.7248 52.4393 22.4593C51.1821 23.1938 49.742 23.5557 48.287 23.5027C46.9134 23.5344 45.5486 23.2765 44.2812 22.746C43.0138 22.2155 41.8723 21.4241 40.9308 20.4234C40.3751 19.824 39.4761 20.723 40.033 21.3212C41.6611 23.0129 43.775 24.1564 46.0818 24.5934C48.3887 25.0303 50.7743 24.739 52.9083 23.7599C57.2276 21.4935 58.8534 15.3336 58.3402 10.8432C57.827 6.30919 55.0473 1.42842 50.3422 0.235489C45.8082 -0.919548 39.0903 2.33086 37.0834 6.56523C35.8434 9.17382 36.313 12.2968 36.9548 15.034C37.4245 17.7975 38.8437 20.3105 40.9676 22.1399C41.6564 22.7392 42.5933 21.8402 41.9515 21.327L41.9561 21.3224Z" fill="#161616"/>
</g>
</g>
</g>
<g style="mix-blend-mode:screen">
<g style="mix-blend-mode:screen">
<g style="mix-blend-mode:screen">
<path d="M49.5694 1.6039C56.0702 -0.0643618 59.4492 6.94968 59.5778 12.2966C59.6203 14.7341 59.4067 17.4713 57.952 19.5299C56.3699 21.7539 53.5466 22.4382 51.194 23.4646C50.4236 23.8091 51.1079 24.9193 51.8358 24.5772C54.6591 23.3372 57.7385 22.5243 59.4067 19.6585C60.9889 16.9213 61.1175 13.2852 60.7328 10.2058C60.0439 4.56038 55.5581 -1.25729 49.2697 0.36849C49.1112 0.413659 48.9763 0.518399 48.8932 0.660783C48.8102 0.803167 48.7854 0.972154 48.8241 1.13238C48.8629 1.2926 48.9621 1.43164 49.101 1.52038C49.2399 1.60913 49.4077 1.6407 49.5694 1.60849V1.6039Z" fill="#161616"/>
</g>
</g>
</g>
<g style="mix-blend-mode:screen">
<g style="mix-blend-mode:screen">
<g style="mix-blend-mode:screen">
<path d="M56.7131 18.9286L58.5088 18.5428C59.3217 18.3717 58.9796 17.1317 58.1644 17.3028L56.3675 17.6874C55.5546 17.8585 55.8968 19.0985 56.712 18.9274L56.7131 18.9286Z" fill="#161616"/>
</g>
</g>
</g>
<g style="mix-blend-mode:screen">
<g style="mix-blend-mode:screen">
<g style="mix-blend-mode:screen">
<path d="M58.2529 14.0099C58.9418 13.7963 59.6215 13.5816 60.2633 13.321C61.0337 13.0638 60.6916 11.8284 59.9189 12.081C59.23 12.2945 58.5503 12.5092 57.9085 12.7699C57.138 13.027 57.4802 14.2625 58.2529 14.0099Z" fill="#161616"/>
</g>
</g>
</g>
<g style="mix-blend-mode:screen">
<g style="mix-blend-mode:screen">
<g style="mix-blend-mode:screen">
<path d="M57.8257 10.2014C58.254 10.1153 58.7236 10.0303 59.1518 9.94421C59.2305 9.92159 59.3039 9.88371 59.3679 9.83272C59.4318 9.78174 59.4852 9.71865 59.5248 9.64706C59.5644 9.57547 59.5895 9.49677 59.5987 9.41547C59.6079 9.33417 59.601 9.25186 59.5784 9.17323C59.5557 9.09459 59.5179 9.02119 59.4669 8.9572C59.4159 8.89321 59.3528 8.83989 59.2812 8.80028C59.2096 8.76067 59.1309 8.73555 59.0496 8.72636C58.9683 8.71716 58.886 8.72407 58.8074 8.74669C58.3791 8.8328 57.9095 8.91776 57.4813 9.00387C57.4019 9.02511 57.3275 9.06213 57.2627 9.11272C57.1979 9.16332 57.144 9.22645 57.1041 9.29836C57.0642 9.37027 57.0393 9.44947 57.0307 9.53124C57.0221 9.61301 57.0301 9.69567 57.0542 9.77428C57.1046 9.9299 57.2121 10.0606 57.3551 10.1401C57.498 10.2196 57.6658 10.2419 57.8246 10.2025L57.8257 10.2014Z" fill="#161616"/>
</g>
</g>
</g>
<g style="mix-blend-mode:screen">
<g style="mix-blend-mode:screen">
<g style="mix-blend-mode:screen">
<path d="M55.2585 4.81211C56.0448 4.949 56.8528 4.89024 57.6111 4.64104C58.3815 4.38385 58.0382 3.14845 57.2666 3.40104C56.7308 3.58434 56.1602 3.64285 55.5983 3.57211C55.4396 3.53278 55.2718 3.5551 55.1288 3.63457C54.9859 3.71404 54.8783 3.84476 54.8279 4.00037C54.799 4.08172 54.7873 4.16819 54.7935 4.2543C54.7997 4.34042 54.8236 4.42432 54.8639 4.5007C54.9041 4.57709 54.9597 4.6443 55.0273 4.6981C55.0948 4.7519 55.1727 4.79111 55.2562 4.81326L55.2585 4.81211Z" fill="#161616"/>
</g>
</g>
</g>
<g style="mix-blend-mode:screen">
<g style="mix-blend-mode:screen">
<g style="mix-blend-mode:screen">
<path d="M48.1583 85.7361C45.4476 84.8569 43.0851 83.1416 41.41 80.8362C39.7348 78.5309 38.8331 75.7541 38.8342 72.9044C38.7056 66.3599 44.3947 60.7569 50.8955 63.6664C56.3699 66.1039 58.4664 72.5197 58.6375 78.1227C58.7236 80.8174 58.2529 84.0678 55.8142 85.6499C53.2883 87.3182 49.9977 86.6764 47.303 85.821C46.5326 85.5638 46.1904 86.805 46.9585 87.061C51.3215 88.4721 56.8384 88.5536 59.0198 83.682C61.1152 79.0205 59.7902 72.3475 57.3941 68.0672C54.999 63.7479 49.8668 60.4114 44.7771 61.9085C39.4738 63.4907 37.0787 69.2647 37.6769 74.3981C37.9493 77.2677 39.0596 79.9938 40.8696 82.2371C42.6796 84.4805 45.1093 86.1421 47.8564 87.0151C48.6268 87.2287 48.9689 85.9887 48.1561 85.7315L48.1583 85.7361Z" fill="#161616"/>
</g>
</g>
</g>
<g style="mix-blend-mode:screen">
<g style="mix-blend-mode:screen">
<g style="mix-blend-mode:screen">
<path d="M40.8871 63.9234C35.3691 68.671 33.6537 76.84 37.8077 83.0423C39.7297 85.9493 42.7187 87.9829 46.1283 88.7034C49.5379 89.4238 53.0941 88.7731 56.0277 86.8921C56.7166 86.4638 56.0702 85.3524 55.3859 85.7795C54.0329 86.6556 52.517 87.2495 50.9291 87.5259C49.3412 87.8023 47.7138 87.7554 46.1444 87.3881C44.575 87.0207 43.0958 86.3404 41.7956 85.3879C40.4953 84.4354 39.4006 83.2303 38.577 81.8448C35.1555 76.1133 36.9087 69.0567 41.8274 64.8224C42.4267 64.3092 41.5277 63.4113 40.8859 63.9245L40.8871 63.9234Z" fill="#161616"/>
</g>
</g>
</g>
<g style="mix-blend-mode:screen" opacity="0.14">
<path d="M44.3098 63.3655C43.1417 65.971 42.5855 68.8094 42.684 71.6632C42.7265 72.7757 43.0285 78.9769 47.5166 83.1687C50.5959 86.0391 53.8463 86.2056 53.7166 87.1873C53.5455 88.2562 49.5247 89.1116 45.8897 88.2137C43.825 87.6555 41.9241 86.6109 40.346 85.1672C38.768 83.7236 37.5587 81.923 36.8193 79.916C35.5725 76.6818 35.6513 73.0864 37.0386 69.9099C38.5004 66.8519 41.1153 64.4984 44.3098 63.3655V63.3655Z" fill="#47BF9F"/>
</g>
<g style="mix-blend-mode:screen" opacity="0.15">
<path d="M3.97653 28.1663C4.2363 30.5693 4.8115 32.9276 5.68727 35.1803C6.79983 37.9175 8.72413 42.8362 13.7243 45.6594C15.8783 46.8499 18.2794 47.5236 20.7383 47.6274C20.1821 48.7032 19.357 49.6169 18.3433 50.2796C17.6335 50.7245 16.8519 51.0431 16.0332 51.2211C13.465 50.4595 11.0484 49.2583 8.8906 47.671C5.34119 45.1955 2.68587 41.6401 1.31972 37.534C0.504841 34.8466 0.314759 32.0084 0.764002 29.2363C1.79504 28.8506 2.86397 28.5084 3.97653 28.1663Z" fill="#47BF9F"/>
</g>
<g style="mix-blend-mode:screen" opacity="0.14">
<path d="M50.2974 0.663939C52.4015 1.76867 54.1523 3.44339 55.3492 5.49649C56.8806 8.30185 57.4072 11.5463 56.8418 14.692C56.6856 16.9779 55.8846 19.1726 54.5317 21.0218C53.7688 22.0279 52.8264 22.8842 51.7521 23.5477C53.7192 23.4571 55.5938 22.686 57.0554 21.3662C58.3649 19.9954 59.2431 18.2704 59.5813 16.4051C60.13 14.4301 60.2899 12.3673 60.052 10.3313C59.8339 8.68694 59.3287 7.09361 58.5594 5.62394C57.7539 3.68197 56.2834 2.09015 54.4112 1.13353C53.1117 0.592118 51.6855 0.429325 50.2974 0.663939V0.663939Z" fill="#47BF9F"/>
</g>
</g>
<path d="M45.5437 7.17674C48.003 8.20032 51.6654 10.9604 46.6415 13.8118C48.0638 15.5439 49.2716 16.9984 50.0378 17.9164C50.3391 18.2774 50.572 18.5554 50.723 18.7347M51.2417 6.49895L42.3124 7.49942M42.5599 8.88892L51.8991 7.9661" stroke="#151515"/>
<path d="M9.5 33.5C11.8333 35.1667 15.6 38.5 12 38.5C13.2 39.7 15.1667 41.6667 16 42.5M7 33L12.5 33.5M7 34L12.5 35" stroke="#151515" stroke-width="0.5"/>
<path d="M48.608 70.6751C51.9244 72.2479 55.1604 74.1846 50.5547 76.3725C51.8962 77.5127 53.2524 78.5323 54.3926 79.3372C55.4806 80.1054 56.3719 80.6781 56.8657 80.9737M44 70.8015L55.3971 68.9698M44.3654 72.2563L56.0062 71.3945" stroke="#151515" stroke-width="0.75"/>
</svg>
