<svg width="128" height="183" viewBox="0 0 128 183" fill="none" xmlns="http://www.w3.org/2000/svg">
<path d="M33.1698 30.1475C32.3538 35.1755 34.5878 39.9015 37.5528 43.8125C40.5608 47.7655 44.6428 50.9885 49.6708 51.7195C50.4868 51.8485 50.8308 50.6025 50.0148 50.4735C45.6748 49.8735 42.0658 47.2935 39.3148 43.9845C36.2638 40.2845 33.5998 35.4765 34.4148 30.5345C34.5438 29.6755 33.2978 29.3345 33.1688 30.1475H33.1698Z" fill="#DDDDDD"/>
<path d="M34.2868 30.1474C35.526 29.2011 36.9671 28.5539 38.4977 28.2564C39.3137 28.0844 38.9708 26.8384 38.1538 27.0104C36.4164 27.3642 34.7841 28.114 33.3838 29.2014C32.7388 29.7604 33.6417 30.6624 34.2837 30.1464L34.2868 30.1474Z" fill="#DDDDDD"/>
<path d="M38.7118 28.3423C42.5358 29.3733 46.0118 33.8423 48.2118 36.9363C50.4722 40.1534 52.2121 43.7062 53.3677 47.4643C53.6257 48.2373 54.8678 47.9373 54.6138 47.1203C53.3068 42.8073 51.2412 38.762 48.5137 35.1743C46.1937 32.1233 42.8848 28.1273 39.0608 27.0963C38.8955 27.0507 38.7189 27.0726 38.5699 27.1572C38.4208 27.2417 38.3114 27.3821 38.2658 27.5473C38.2201 27.7125 38.242 27.8891 38.3266 28.0382C38.4112 28.1873 38.5515 28.2967 38.7167 28.3423H38.7118Z" fill="#DDDDDD"/>
<path d="M49.9278 51.8043C51.5783 50.9821 53.0289 49.8087 54.1778 48.3663C54.6938 47.7213 53.7908 46.8193 53.2778 47.4663C52.2185 48.8235 50.8674 49.925 49.3248 50.6893C48.5088 51.0763 49.1957 52.1503 49.9247 51.8063L49.9278 51.8043Z" fill="#DDDDDD"/>
<path d="M36.3058 28.4294C36.1768 33.3714 38.9268 38.3124 41.8488 42.1364C44.5988 45.7454 48.4658 48.4964 53.1928 48.4104C53.3593 48.4039 53.5168 48.3331 53.6323 48.2129C53.7479 48.0928 53.8124 47.9326 53.8124 47.7659C53.8124 47.5993 53.7479 47.4391 53.6323 47.3189C53.5168 47.1988 53.3593 47.128 53.1928 47.1214C48.4228 47.2074 44.7278 44.1134 42.1498 40.3754C39.7868 36.8944 37.5088 32.7694 37.5948 28.4294C37.5882 28.2629 37.5174 28.1053 37.3973 27.9898C37.2771 27.8743 37.1169 27.8098 36.9503 27.8098C36.7836 27.8098 36.6234 27.8743 36.5032 27.9898C36.3831 28.1053 36.3123 28.2629 36.3058 28.4294Z" fill="#DDDDDD"/>
<path d="M34.9308 36.0344C35.573 35.2697 36.3618 34.6414 37.2507 34.1864C37.9817 33.8424 37.3368 32.7254 36.6058 33.0694C35.6062 33.5414 34.7252 34.2317 34.0278 35.0894C33.5118 35.7344 34.4148 36.6794 34.9278 36.0344H34.9308Z" fill="#DDDDDD"/>
<path d="M34.2448 33.1125C35.0251 32.5146 35.9158 32.0766 36.8658 31.8235C37.031 31.7779 37.1713 31.6685 37.2559 31.5194C37.3405 31.3703 37.3624 31.1937 37.3168 31.0285C37.2711 30.8633 37.1618 30.7229 37.0127 30.6384C36.8636 30.5538 36.687 30.5319 36.5218 30.5775C35.4749 30.8824 34.487 31.3618 33.5998 31.9955C32.9548 32.4685 33.5567 33.5855 34.2448 33.1125Z" fill="#DDDDDD"/>
<path d="M38.7988 43.9835C39.6988 43.2535 40.6468 42.5225 41.5488 41.7925C42.1938 41.2765 41.2907 40.3745 40.6487 40.8925C39.7487 41.6225 38.8007 42.3535 37.8987 43.0835C37.2117 43.5995 38.1568 44.5015 38.7988 43.9835Z" fill="#DDDDDD"/>
<path d="M41.3778 46.8194L43.5687 45.1434C43.6433 45.0989 43.7083 45.0399 43.7599 44.97C43.8116 44.9001 43.8488 44.8207 43.8694 44.7363C43.8901 44.6519 43.8938 44.5642 43.8803 44.4784C43.8668 44.3926 43.8364 44.3103 43.7908 44.2363C43.7452 44.1623 43.6854 44.0981 43.6148 44.0474C43.5443 43.9968 43.4643 43.9606 43.3796 43.9411C43.295 43.9216 43.2073 43.9191 43.1216 43.9337C43.036 43.9484 42.9541 43.9799 42.8807 44.0264L40.6898 45.7024C40.6152 45.747 40.5502 45.806 40.4986 45.8758C40.4469 45.9457 40.4097 46.0252 40.3891 46.1096C40.3684 46.194 40.3647 46.2816 40.3782 46.3675C40.3917 46.4533 40.4221 46.5356 40.4677 46.6096C40.5133 46.6836 40.5731 46.7478 40.6437 46.7984C40.7142 46.8491 40.7942 46.8853 40.8789 46.9048C40.9635 46.9243 41.0512 46.9268 41.1369 46.9122C41.2225 46.8975 41.3044 46.866 41.3778 46.8194Z" fill="#DDDDDD"/>
<path d="M45.9307 50.0424C46.6607 49.3124 47.4308 48.6244 48.1648 47.8944C48.7648 47.3354 47.8647 46.3944 47.2647 46.9944C46.5337 47.7244 45.7647 48.4124 45.0307 49.1434C44.4307 49.7024 45.3307 50.6434 45.9307 50.0434V50.0424Z" fill="#DDDDDD"/>
<path d="M75.1518 21.4234C71.3708 18.4584 69.0518 10.0364 72.2298 6.04041C75.9678 1.44041 83.4018 -0.533589 87.5698 4.36441C91.0508 8.44641 91.2698 14.8494 88.6438 19.4474C87.9724 20.747 86.9453 21.829 85.6823 22.567C84.4194 23.3049 82.9726 23.6686 81.5108 23.6154C80.1307 23.6472 78.7593 23.3882 77.4859 22.8551C76.2125 22.3221 75.0656 21.5269 74.1198 20.5214C73.5608 19.9214 72.6588 20.8214 73.2198 21.4214C76.3568 24.7734 81.9858 26.0214 86.1538 23.8704C90.4938 21.5934 92.1268 15.4054 91.6108 10.8934C91.0948 6.33841 88.3017 1.44041 83.5757 0.236412C79.0207 -0.923588 72.2757 2.34241 70.2547 6.59641C69.0087 9.21741 69.4818 12.3544 70.1258 15.1044C70.6012 17.8796 72.0295 20.4021 74.1648 22.2374C74.8518 22.8374 75.7978 21.9374 75.1528 21.4214L75.1518 21.4234Z" fill="#DDDDDD"/>
<path d="M82.7998 1.61433C89.3308 -0.0616705 92.7257 6.98533 92.8547 12.3573C92.8977 14.8063 92.6828 17.5573 91.2218 19.6193C89.6318 21.8533 86.7958 22.5413 84.4328 23.5723C83.6598 23.9163 84.3468 25.0333 85.0778 24.6893C87.9138 23.4433 91.0078 22.6263 92.6838 19.7473C94.2738 16.9973 94.4028 13.3473 94.0158 10.2473C93.3288 4.57533 88.8158 -1.26867 82.4998 0.364329C82.3382 0.407496 82.1999 0.512109 82.1143 0.655845C82.0288 0.79958 82.0028 0.971051 82.042 1.13366C82.0811 1.29627 82.1823 1.43713 82.3239 1.52619C82.4655 1.61525 82.6362 1.64544 82.7998 1.61033V1.61433Z" fill="#DDDDDD"/>
<path d="M89.9768 19.0174L91.7767 18.6304C92.5927 18.4584 92.2497 17.2124 91.4327 17.3844L89.6327 17.7714C88.8167 17.9434 89.1598 19.1894 89.9768 19.0174Z" fill="#DDDDDD"/>
<path d="M91.5227 14.0764C92.2107 13.8614 92.8978 13.6464 93.5428 13.3884C94.3158 13.1304 93.9728 11.8884 93.1988 12.1424C92.5118 12.3574 91.8238 12.5724 91.1788 12.8304C90.4058 13.0884 90.7487 14.3304 91.5227 14.0764Z" fill="#DDDDDD"/>
<path d="M91.0937 10.2523C91.5237 10.1663 91.9937 10.0803 92.4257 9.99432C92.5102 9.97697 92.5902 9.94234 92.6607 9.89262C92.7311 9.8429 92.7906 9.77915 92.8352 9.70538C92.8799 9.63161 92.9089 9.54941 92.9203 9.46393C92.9317 9.37844 92.9253 9.29153 92.9015 9.20862C92.8778 9.12572 92.8371 9.04862 92.7822 8.98216C92.7272 8.91571 92.6591 8.86132 92.5821 8.82242C92.5052 8.78352 92.421 8.76095 92.3349 8.75611C92.2488 8.75128 92.1626 8.76428 92.0817 8.79432C91.6517 8.88032 91.1817 8.96632 90.7497 9.05232C90.67 9.07358 90.5953 9.11069 90.5302 9.16142C90.4651 9.21214 90.4109 9.27546 90.3707 9.34759C90.3306 9.41972 90.3054 9.49919 90.2967 9.58127C90.2879 9.66334 90.2958 9.74634 90.3198 9.82532C90.3706 9.98131 90.4784 10.1123 90.6218 10.1921C90.7652 10.2718 90.9334 10.2944 91.0927 10.2553L91.0937 10.2523Z" fill="#DDDDDD"/>
<path d="M88.5168 4.83731C89.3066 4.9747 90.1181 4.91563 90.8798 4.6653C91.6528 4.4073 91.3098 3.1653 90.5358 3.4193C89.9975 3.6035 89.4242 3.66233 88.8598 3.5913C88.7004 3.5522 88.5322 3.57479 88.3888 3.65454C88.2455 3.73429 88.1376 3.86531 88.0868 4.0213C88.0579 4.10298 88.0462 4.18975 88.0525 4.27615C88.0588 4.36255 88.0829 4.44672 88.1233 4.52336C88.1637 4.6 88.2195 4.66745 88.2872 4.72148C88.3549 4.77551 88.4331 4.81494 88.5168 4.83731Z" fill="#DDDDDD"/>
<path d="M81.3827 86.1364C75.7537 84.5034 72.1007 79.0034 72.0157 73.2454C71.8867 66.6714 77.6018 61.0454 84.1338 63.9634C89.6338 66.4124 91.7398 72.8584 91.9118 78.4874C91.9978 81.1944 91.5247 84.4604 89.0757 86.0504C86.5407 87.7264 83.2317 87.0814 80.5247 86.2224C79.7517 85.9644 79.4078 87.2104 80.1808 87.4684C84.5638 88.8864 90.1067 88.9684 92.2987 84.0734C94.4047 79.3894 93.0718 72.6864 90.6658 68.3894C88.2598 64.0494 83.1027 60.6974 77.9897 62.2014C72.6617 63.7914 70.2547 69.5924 70.8567 74.7484C71.1302 77.6315 72.2454 80.3704 74.0637 82.6245C75.8819 84.8785 78.3229 86.5481 81.0827 87.4254C81.8557 87.6404 82.1997 86.3944 81.3827 86.1364Z" fill="#DDDDDD"/>
<path d="M74.0798 64.2225C68.5368 68.9925 66.8177 77.1995 70.9857 83.4305C72.9168 86.3509 75.9198 88.3939 79.3453 89.1175C82.7708 89.8412 86.3435 89.1874 89.2908 87.2975C89.9788 86.8675 89.3337 85.7505 88.6457 86.1805C87.2865 87.0606 85.7636 87.6574 84.1683 87.9351C82.5729 88.2129 80.938 88.1658 79.3612 87.7967C77.7845 87.4276 76.2985 86.7441 74.9922 85.7872C73.6859 84.8302 72.5861 83.6195 71.7588 82.2275C68.3208 76.4695 70.0827 69.3795 75.0247 65.1275C75.6247 64.6115 74.7248 63.7095 74.0798 64.2275V64.2225Z" fill="#DDDDDD"/>
<path opacity="0.14" d="M77.5148 63.6633C76.3414 66.2809 75.7828 69.1324 75.8818 71.9993C75.9248 73.1163 76.2258 79.3473 80.7378 83.5583C83.8318 86.4373 87.0978 86.6093 86.9688 87.5973C86.7968 88.6713 82.7578 89.5313 79.1048 88.6283C77.031 88.0671 75.1218 87.0175 73.5369 85.5672C71.952 84.1169 70.7374 82.3082 69.9948 80.2923C68.7398 77.0431 68.817 73.43 70.2098 70.2373C71.6785 67.1654 74.3055 64.8012 77.5148 63.6633Z" fill="#47BF9F"/>
<path opacity="0.15" d="M36.9937 28.2993C37.2548 30.7136 37.8328 33.083 38.7128 35.3463C39.8298 38.0963 41.7638 43.0383 46.7908 45.8743C48.9549 47.0703 51.3673 47.7471 53.8378 47.8513C53.2789 48.9319 52.4501 49.8497 51.4317 50.5153C50.7188 50.9619 49.9339 51.2817 49.1118 51.4603C46.5316 50.6951 44.1036 49.4882 41.9357 47.8933C38.3699 45.4062 35.7023 41.8344 34.3298 37.7093C33.5109 35.0095 33.3197 32.1583 33.7707 29.3733C34.8037 28.9863 35.8767 28.6423 36.9937 28.2993Z" fill="#47BF9F"/>
<path opacity="0.14" d="M83.5308 0.670523C85.6428 1.78149 87.3998 3.46427 88.6008 5.52652C90.1396 8.34507 90.6688 11.6049 90.1008 14.7655C89.9441 17.0622 89.1397 19.2674 87.7808 21.1255C87.0139 22.1354 86.067 22.9948 84.9878 23.6605C86.9641 23.57 88.8475 22.7955 90.3158 21.4695C91.6305 20.0918 92.512 18.3585 92.8508 16.4845C93.4018 14.501 93.5625 12.4293 93.3237 10.3845C93.1042 8.73322 92.5965 7.13328 91.8237 5.65752C91.0145 3.70617 89.5369 2.10667 87.6558 1.14552C86.3529 0.602134 84.9231 0.437492 83.5308 0.670523Z" fill="#DDDDDD"/>
<path d="M79.2332 6.1096C81.6924 7.13318 85.3549 9.89321 80.3309 12.7447C81.7533 14.4767 82.9611 15.9313 83.7273 16.8493C84.0285 17.2102 84.2615 17.4882 84.4124 17.6676M84.9311 5.43181L76.0018 6.43229M76.2494 7.82178L85.5886 6.89896" stroke="white"/>
<path d="M42.5 34C44.8333 35.6667 48.6 39 45 39C46.2 40.2 48.1667 42.1667 49 43M40 33.5L45.5 34M40 34.5L45.5 35.5" stroke="white" stroke-width="0.5"/>
<path d="M79.1978 68.97C82.5142 70.5428 85.7501 72.4795 81.1444 74.6675C82.4859 75.8077 83.8422 76.8272 84.9823 77.6321C86.0704 78.4003 86.9616 78.9731 87.4555 79.2686M74.5897 69.0964L85.9869 67.2647M74.9552 70.5512L86.5959 69.6894" stroke="white" stroke-width="0.75"/>
<path d="M39.689 140.5C31.6889 140.5 31.689 127.5 39.689 127.5H121.689C129.189 127.5 129.189 140.5 121.689 140.5C119.864 140.5 113.86 140.5 105.689 140.5M39.689 140.5C41.551 140.5 43.561 140.5 45.689 140.5M39.689 140.5H45.689M45.689 140.5V130.5M45.689 140.5C47.4475 140.5 49.2865 140.5 51.189 140.5M51.189 140.5V133.5M51.189 140.5C60.0507 140.5 70.2903 140.5 80.189 140.5M68.689 138V131M68.689 138V138.5V130.5V138ZM80.189 129.5V140.5M80.189 140.5C89.4585 140.5 98.429 140.5 105.689 140.5M90.189 134V137.5M105.689 133V139.5V140.5M112.689 130V139.15M31.189 118V123M35.189 116.5V124.5M42.689 120V124.5M47.189 116.5V123M65.689 117V125.5M65.689 125.5C87.8469 125.5 109.419 125.5 111.189 125.5C119.189 125.5 118.689 113 111.189 113H30.1889C21.6889 113 22.1889 125.5 30.1889 125.5C39.6938 125.5 52.7906 125.5 65.689 125.5ZM69.189 120V124M73.189 116V124M88.189 118V124M90.689 119V124.5M100.689 116.5V123.5M104.689 120.5V123.5M115.689 110C117.189 110.5 120.089 112.7 119.689 117.5" stroke="white" stroke-width="0.75"/>
<path d="M26.4505 157.5V166.5M32.9505 159V169M32.9505 169C27.762 169 24.1376 169 22.9505 169C13.6832 169 13.6832 156 22.9505 156C28.9485 156 36.44 155.982 44.4505 155.959M32.9505 169C34.0497 169 35.2192 169 36.4505 169M36.4505 165V169M36.4505 169C54.8658 169 87.1258 169 105.451 169C113.45 169 113.45 156.5 105.451 156C103.787 155.896 97.3132 155.859 88.4505 155.856M44.4505 167V155.959M44.4505 155.959C49.9768 155.942 55.7501 155.924 61.4505 155.907M46.9505 166.5V161M49.9505 165V159.5M61.4505 167.5V155.907M61.4505 155.907C71.1971 155.878 80.7303 155.854 88.4505 155.856M72.9505 160.5V166.5M88.4505 168V155.856M92.9505 167.5V161.5M101.95 165.5V157M109.45 154C110.95 154.833 113.683 156.356 113.683 160.5M108.45 180.5V170M108.45 170H114.45C122.45 170 122.95 182 114.45 182C108.629 182 77.5925 182 52.4505 182M108.45 170H90.9505M110.95 179.5V175M90.9505 180.5V170M90.9505 170H77.9505M81.4505 179.5V174M77.9505 181C77.9505 180.6 77.9505 173.5 77.9505 170M77.9505 170H31.9505C24.9505 170 24.9505 182 31.9505 182C33.6621 182 35.5034 182 37.4505 182M61.4505 172V179M58.4505 173.5V176M52.4505 170.5V182M52.4505 182C48.6093 182 44.9056 182 41.4505 182M41.4505 177V182M41.4505 182C40.0755 182 38.7398 182 37.4505 182M37.4505 172V182" stroke="white" stroke-width="0.75"/>
<path d="M12.2739 154.5C4.27381 154.152 4.77384 141.5 12.2739 141.5H85.7738H95.7738C102.774 141.5 102.774 154.451 95.7738 154.5C87.955 154.554 77.3449 154.616 66.2738 154.66C57.7293 154.694 48.9102 154.718 40.888 154.721C31.5334 154.724 23.2624 154.698 17.7738 154.625C15.3482 154.593 13.466 154.552 12.2739 154.5Z" fill="#47BF9F"/>
<path d="M17.7738 145V154.625M17.7738 154.625C15.3482 154.593 13.466 154.552 12.2739 154.5C4.27381 154.152 4.77384 141.5 12.2739 141.5C31.7284 141.5 67.7084 141.5 85.7738 141.5M17.7738 154.625C23.2624 154.698 31.5334 154.724 40.888 154.721M30.7738 146V152M34.2738 144V149.5M40.7738 145L40.888 154.721M40.888 154.721C48.9102 154.718 57.7293 154.694 66.2738 154.66M57.7738 144V146.5M66.2738 144V154.66M66.2738 154.66C77.3449 154.616 87.955 154.554 95.7738 154.5C102.774 154.451 102.774 141.5 95.7738 141.5C94.1679 141.5 90.6138 141.5 85.7738 141.5M74.2738 144V152M85.7738 150.5V141.5M89.7738 147.5V153.5M9.77385 144C9.10718 145.167 8.07385 148.1 9.27385 150.5M4.77385 139C3.10718 140.667 0.0738463 145.3 1.27385 150.5" stroke="white" stroke-width="0.75"/>
</svg>
