<svg width="263" height="78" viewBox="0 0 263 78" fill="none" xmlns="http://www.w3.org/2000/svg">
<path d="M3.18484 69V40.6H9.74484V69H3.18484ZM21.737 52.76V69H15.177V40.6H20.377L33.537 57.32V40.6H40.097V69H34.737L21.737 52.76ZM49.6486 40.6L56.3286 61.32L62.9286 40.6H69.8486L59.5286 69H53.0886L42.6886 40.6H49.6486ZM92.4417 63.24V69H72.4817V40.6H92.0817V46.36H79.0417V51.88H90.2417V57.2H79.0417V63.24H92.4417ZM113.467 48.92C113.387 48.7867 113.107 48.5867 112.627 48.32C112.147 48.0267 111.547 47.72 110.827 47.4C110.107 47.08 109.32 46.8 108.467 46.56C107.614 46.32 106.76 46.2 105.907 46.2C104.787 46.2 103.92 46.4 103.307 46.8C102.694 47.1733 102.387 47.76 102.387 48.56C102.387 49.2 102.614 49.7067 103.067 50.08C103.547 50.4533 104.227 50.7867 105.107 51.08C105.987 51.3467 107.067 51.6667 108.347 52.04C110.16 52.52 111.734 53.1067 113.067 53.8C114.4 54.4667 115.414 55.3333 116.107 56.4C116.827 57.4667 117.187 58.88 117.187 60.64C117.187 62.24 116.894 63.6 116.307 64.72C115.72 65.8133 114.92 66.7067 113.907 67.4C112.92 68.0667 111.787 68.56 110.507 68.88C109.227 69.1733 107.907 69.32 106.547 69.32C105.16 69.32 103.734 69.1867 102.267 68.92C100.827 68.6267 99.4404 68.2267 98.107 67.72C96.7737 67.1867 95.547 66.5467 94.427 65.8L97.307 60.08C97.4137 60.2133 97.7604 60.4667 98.347 60.84C98.9337 61.1867 99.6537 61.56 100.507 61.96C101.387 62.3333 102.36 62.6667 103.427 62.96C104.494 63.2533 105.574 63.4 106.667 63.4C107.84 63.4 108.707 63.2133 109.267 62.84C109.854 62.4667 110.147 61.9467 110.147 61.28C110.147 60.56 109.84 60 109.227 59.6C108.64 59.2 107.827 58.84 106.787 58.52C105.774 58.2 104.6 57.84 103.267 57.44C101.534 56.9067 100.094 56.3067 98.947 55.64C97.827 54.9733 96.987 54.16 96.427 53.2C95.8937 52.24 95.627 51.04 95.627 49.6C95.627 47.6 96.0937 45.92 97.027 44.56C97.987 43.1733 99.267 42.1333 100.867 41.44C102.467 40.72 104.214 40.36 106.107 40.36C107.44 40.36 108.72 40.52 109.947 40.84C111.2 41.16 112.36 41.56 113.427 42.04C114.52 42.52 115.494 43 116.347 43.48L113.467 48.92ZM142.676 46.36H134.036V69H127.476V46.36H118.796V40.6H142.676V46.36ZM145.88 69V40.6H152.44V69H145.88ZM180.272 69V52.08L174.152 64.4H170.552L164.432 52.08V69H157.872V40.6H164.992L172.352 55.44L179.752 40.6H186.832V69H180.272ZM199.446 40.6H206.526L216.286 69H209.566L207.366 62.64H198.526L196.366 69H189.646L199.446 40.6ZM206.286 58.12L202.966 47.2L199.566 58.12H206.286ZM238.106 46.36H229.466V69H222.906V46.36H214.226V40.6H238.106V46.36ZM261.27 63.24V69H241.31V40.6H260.91V46.36H247.87V51.88H259.07V57.2H247.87V63.24H261.27Z" fill="white"/>
<path d="M227.547 3.45801C229.832 3.45801 232.065 4.13546 233.964 5.4047C235.864 6.67394 237.345 8.47796 238.219 10.5886C239.093 12.6993 239.322 15.0218 238.876 17.2625C238.43 19.5032 237.33 21.5614 235.715 23.1768C234.099 24.7922 232.041 25.8924 229.801 26.3381C227.56 26.7838 225.237 26.555 223.127 25.6807C221.016 24.8065 219.212 23.326 217.943 21.4264C216.674 19.5268 215.996 17.2936 215.996 15.009C215.996 11.9455 217.213 9.00745 219.379 6.84122C221.546 4.67498 224.484 3.45801 227.547 3.45801V3.45801Z" fill="#F5F5F5"/>
<path d="M225.212 27.296C232.451 27.296 238.319 21.4094 238.319 14.148C238.319 6.88656 232.451 1 225.212 1C217.973 1 212.105 6.88656 212.105 14.148C212.105 21.4094 217.973 27.296 225.212 27.296Z" stroke="#161616" stroke-width="0.637" stroke-miterlimit="10"/>
<path d="M227.016 6.94023C224.435 6.77623 217.8 9.27523 220.258 13.0022C221.692 15.1732 224.477 13.7392 226.484 14.2722C229.065 14.9722 228.778 18.0812 227.184 19.5972C226.403 20.3011 225.384 20.6803 224.333 20.6574C223.282 20.6346 222.28 20.2113 221.531 19.4742C220.958 18.9422 220.056 19.8022 220.671 20.3342C223.907 23.2832 229.682 21.6042 229.682 16.8112C229.707 15.8425 229.352 14.9023 228.694 14.1909C228.036 13.4795 227.127 13.053 226.159 13.0022C224.643 12.8022 220.384 13.9442 221.367 10.8312C222.022 8.70124 225.176 8.04623 227.061 8.16923C227.839 8.21023 227.839 6.98123 227.02 6.94023H227.016Z" fill="#161616"/>
<path d="M225.622 7.51303C225.745 6.16103 225.868 4.85103 225.991 3.49903C226.073 2.72103 224.844 2.72103 224.762 3.49903C224.639 4.85103 224.516 6.16103 224.393 7.51303C224.311 8.29103 225.54 8.29103 225.622 7.51303Z" fill="#161616"/>
<path d="M224.803 22.1768C224.926 23.1188 225.049 24.1018 225.131 25.0438C225.213 25.8218 226.442 25.8218 226.36 25.0438C226.237 24.1018 226.114 23.1188 226.032 22.1768C225.95 21.3988 224.721 21.3988 224.803 22.1768Z" fill="#161616"/>
</svg>
