<svg width="163" height="30" viewBox="0 0 163 30" fill="none" xmlns="http://www.w3.org/2000/svg">
<path d="M1.97388 23.9353V6.33378H6.03958V23.9353H1.97388ZM13.472 13.8702V23.9353H9.4063V6.33378H12.6291L20.7853 16.6964V6.33378H24.851V23.9353H21.529L13.472 13.8702ZM30.7708 6.33378L34.9109 19.1755L39.0014 6.33378H43.2902L36.8942 23.9353H32.9028L26.4572 6.33378H30.7708ZM57.2928 20.3654V23.9353H44.9221V6.33378H57.0697V9.90367H48.9878V13.3248H55.9293V16.622H48.9878V20.3654H57.2928ZM70.3237 11.4903C70.2741 11.4076 70.1006 11.2837 69.8031 11.1184C69.5056 10.9366 69.1337 10.7466 68.6875 10.5482C68.2412 10.3499 67.7537 10.1764 67.2248 10.0276C66.6959 9.87888 66.1671 9.8045 65.6382 9.8045C64.9441 9.8045 64.4069 9.92846 64.0268 10.1764C63.6467 10.4077 63.4566 10.7713 63.4566 11.2672C63.4566 11.6638 63.5971 11.9778 63.878 12.2092C64.1755 12.4406 64.597 12.6472 65.1424 12.829C65.6878 12.9943 66.3571 13.1926 67.1504 13.424C68.2743 13.7215 69.2494 14.0851 70.0758 14.5148C70.9021 14.928 71.5302 15.4651 71.9599 16.1262C72.4061 16.7873 72.6292 17.6632 72.6292 18.754C72.6292 19.7456 72.4474 20.5885 72.0838 21.2827C71.7202 21.9603 71.2244 22.514 70.5964 22.9437C69.9849 23.3568 69.2825 23.6626 68.4892 23.8609C67.6958 24.0427 66.8777 24.1336 66.0349 24.1336C65.1754 24.1336 64.2912 24.051 63.3822 23.8857C62.4898 23.7039 61.6303 23.456 60.804 23.142C59.9776 22.8114 59.2174 22.4148 58.5232 21.952L60.3082 18.4069C60.3743 18.4896 60.5891 18.6466 60.9527 18.878C61.3163 19.0928 61.7626 19.3242 62.2914 19.5721C62.8368 19.8035 63.4401 20.0101 64.1012 20.1919C64.7623 20.3737 65.4316 20.4646 66.1092 20.4646C66.8364 20.4646 67.3736 20.3489 67.7206 20.1175C68.0842 19.8861 68.266 19.5638 68.266 19.1507C68.266 18.7044 68.076 18.3574 67.6958 18.1094C67.3322 17.8615 66.8282 17.6384 66.1836 17.4401C65.5556 17.2418 64.8284 17.0186 64.002 16.7707C62.9277 16.4402 62.0353 16.0683 61.3246 15.6552C60.6304 15.242 60.1098 14.7379 59.7628 14.1429C59.4322 13.5479 59.2669 12.8042 59.2669 11.9117C59.2669 10.6722 59.5562 9.63097 60.1346 8.78808C60.7296 7.92866 61.5229 7.2841 62.5146 6.85439C63.5062 6.40815 64.5887 6.18504 65.7622 6.18504C66.5885 6.18504 67.3818 6.2842 68.1421 6.48253C68.9189 6.68085 69.6378 6.92876 70.2989 7.22625C70.9765 7.52374 71.5797 7.82123 72.1086 8.11872L70.3237 11.4903ZM88.4268 9.90367H83.072V23.9353H79.0063V9.90367H73.6267V6.33378H88.4268V9.90367ZM90.4124 23.9353V6.33378H94.4781V23.9353H90.4124ZM111.728 23.9353V13.4488L107.935 21.0844H105.704L101.911 13.4488V23.9353H97.8448V6.33378H102.258L106.819 15.5312L111.405 6.33378H115.793V23.9353H111.728ZM123.611 6.33378H127.999L134.048 23.9353H129.883L128.52 19.9936H123.041L121.702 23.9353H117.538L123.611 6.33378ZM127.851 17.1922L125.793 10.4243L123.686 17.1922H127.851ZM147.571 9.90367H142.217V23.9353H138.151V9.90367H132.771V6.33378H147.571V9.90367ZM161.928 20.3654V23.9353H149.557V6.33378H161.705V9.90367H153.623V13.3248H160.564V16.622H153.623V20.3654H161.928Z" fill="white"/>
</svg>
