<svg width="401" height="502" viewBox="0 0 401 502" fill="none" xmlns="http://www.w3.org/2000/svg">
<path d="M158.053 250.478C257.343 257.182 401 239.573 401 239.573V152.424C401 152.424 308.894 186.552 212.193 186.552C115.492 186.552 14.2322 139 14.2322 139C14.2322 139 -14.6486 180.676 9.87239 211.322C20.5688 224.693 72.704 246.269 158.053 250.478Z" fill="#1ABC82"/>
<path d="M90.789 497.945H112.662C112.821 497.939 112.971 497.871 113.081 497.756C113.191 497.642 113.252 497.489 113.252 497.33C113.252 497.172 113.191 497.019 113.081 496.904C112.971 496.79 112.821 496.722 112.662 496.716H90.789C90.6303 496.722 90.4802 496.79 90.3702 496.904C90.2602 497.019 90.1987 497.172 90.1987 497.33C90.1987 497.489 90.2602 497.642 90.3702 497.756C90.4802 497.871 90.6303 497.939 90.789 497.945V497.945Z" fill="#161616"/>
<path d="M186.926 497.207H203.146C203.305 497.201 203.455 497.133 203.565 497.018C203.675 496.904 203.736 496.751 203.736 496.592C203.736 496.434 203.675 496.281 203.565 496.166C203.455 496.052 203.305 495.984 203.146 495.978H186.926C186.763 495.978 186.607 496.043 186.491 496.158C186.376 496.273 186.311 496.429 186.311 496.592C186.311 496.755 186.376 496.912 186.491 497.027C186.607 497.142 186.763 497.207 186.926 497.207V497.207Z" fill="#161616"/>
<path d="M211.009 496.471H220.43C220.589 496.465 220.739 496.397 220.849 496.282C220.959 496.168 221.02 496.015 221.02 495.856C221.02 495.698 220.959 495.545 220.849 495.43C220.739 495.316 220.589 495.248 220.43 495.242H211.009C210.85 495.248 210.7 495.316 210.59 495.43C210.48 495.545 210.419 495.698 210.419 495.856C210.419 496.015 210.48 496.168 210.59 496.282C210.7 496.397 210.85 496.465 211.009 496.471V496.471Z" fill="#161616"/>
<path d="M172.424 447.36H94.6399C93.3376 447.356 92.0898 446.837 91.1689 445.916C90.248 444.995 89.7289 443.747 89.7249 442.445V439.905C89.7289 438.603 90.248 437.355 91.1689 436.434C92.0898 435.513 93.3376 434.994 94.6399 434.99H172.424C173.726 434.994 174.974 435.513 175.895 436.434C176.816 437.355 177.335 438.603 177.339 439.905V442.445C177.335 443.747 176.816 444.995 175.895 445.916C174.974 446.837 173.726 447.356 172.424 447.36V447.36Z" stroke="white" stroke-width="0.637" stroke-miterlimit="10"/>
<path d="M180.043 460.385H102.259C100.957 460.381 99.7088 459.862 98.7879 458.941C97.867 458.02 97.3479 456.772 97.3439 455.47V452.93C97.3479 451.628 97.867 450.38 98.7879 449.459C99.7088 448.538 100.957 448.019 102.259 448.015H180.043C181.345 448.019 182.593 448.538 183.514 449.459C184.435 450.38 184.954 451.628 184.958 452.93V455.47C184.954 456.772 184.435 458.02 183.514 458.941C182.593 459.862 181.345 460.381 180.043 460.385V460.385Z" stroke="white" stroke-width="0.637" stroke-miterlimit="10"/>
<path d="M162.102 473.083H84.3179C83.0156 473.079 81.7678 472.56 80.8469 471.639C79.926 470.718 79.4069 469.47 79.4029 468.168V465.628C79.4069 464.326 79.926 463.078 80.8469 462.157C81.7678 461.236 83.0156 460.717 84.3179 460.713H162.102C163.404 460.717 164.652 461.236 165.573 462.157C166.494 463.078 167.013 464.326 167.017 465.628V468.168C167.013 469.47 166.494 470.718 165.573 471.639C164.652 472.56 163.404 473.079 162.102 473.083V473.083Z" fill="#1ABC82" stroke="white" stroke-width="0.637" stroke-miterlimit="10"/>
<path d="M171.605 485.042H93.8619C92.5596 485.038 91.3118 484.519 90.3909 483.598C89.47 482.677 88.9509 481.429 88.9469 480.127V477.587C88.9509 476.285 89.47 475.037 90.3909 474.116C91.3118 473.195 92.5596 472.676 93.8619 472.672H171.644C172.946 472.676 174.194 473.195 175.115 474.116C176.036 475.037 176.555 476.285 176.559 477.587V480.127C176.539 481.431 176.009 482.675 175.083 483.594C174.158 484.512 172.909 485.032 171.605 485.042V485.042Z" stroke="white" stroke-width="0.637" stroke-miterlimit="10"/>
<path d="M180.043 497.413H102.259C100.957 497.409 99.7088 496.89 98.7879 495.969C97.867 495.048 97.3479 493.8 97.3439 492.498V489.958C97.3479 488.656 97.867 487.408 98.7879 486.487C99.7088 485.566 100.957 485.047 102.259 485.043H180.043C181.345 485.047 182.593 485.566 183.514 486.487C184.435 487.408 184.954 488.656 184.958 489.958V492.498C184.954 493.8 184.435 495.048 183.514 495.969C182.593 496.89 181.345 497.409 180.043 497.413V497.413Z" stroke="white" stroke-width="0.637" stroke-miterlimit="10"/>
<path d="M149.691 440.313V445.392C149.699 445.512 149.752 445.624 149.839 445.706C149.927 445.788 150.042 445.833 150.162 445.833C150.282 445.833 150.397 445.788 150.485 445.706C150.572 445.624 150.625 445.512 150.633 445.392V440.313C150.633 440.188 150.583 440.068 150.495 439.98C150.407 439.892 150.287 439.842 150.162 439.842C150.037 439.842 149.917 439.892 149.829 439.98C149.741 440.068 149.691 440.188 149.691 440.313V440.313Z" fill="#161616"/>
<path d="M152.435 441.215V445.844C152.443 445.964 152.496 446.076 152.583 446.158C152.671 446.24 152.786 446.285 152.906 446.285C153.026 446.285 153.141 446.24 153.229 446.158C153.316 446.076 153.369 445.964 153.377 445.844V441.215C153.366 441.098 153.312 440.988 153.225 440.909C153.138 440.829 153.024 440.785 152.906 440.785C152.788 440.785 152.674 440.829 152.587 440.909C152.5 440.988 152.446 441.098 152.435 441.215V441.215Z" fill="#161616"/>
<path d="M161.692 438.675V445.147C161.7 445.267 161.753 445.379 161.84 445.461C161.928 445.543 162.043 445.588 162.163 445.588C162.283 445.588 162.398 445.543 162.486 445.461C162.573 445.379 162.626 445.267 162.634 445.147V438.675C162.623 438.558 162.569 438.448 162.482 438.369C162.395 438.289 162.281 438.245 162.163 438.245C162.045 438.245 161.931 438.289 161.844 438.369C161.757 438.448 161.703 438.558 161.692 438.675V438.675Z" fill="#161616"/>
<path d="M163.535 442.362V444.902C163.543 445.022 163.596 445.134 163.683 445.216C163.771 445.298 163.886 445.343 164.006 445.343C164.126 445.343 164.241 445.298 164.329 445.216C164.416 445.134 164.469 445.022 164.477 444.902V442.362C164.466 442.245 164.412 442.135 164.325 442.056C164.238 441.976 164.124 441.932 164.006 441.932C163.888 441.932 163.774 441.976 163.687 442.056C163.6 442.135 163.546 442.245 163.535 442.362V442.362Z" fill="#161616"/>
<path d="M99.965 438.512V445.68C99.9727 445.799 100.026 445.912 100.113 445.994C100.201 446.076 100.316 446.121 100.436 446.121C100.556 446.121 100.671 446.076 100.759 445.994C100.846 445.912 100.899 445.799 100.907 445.68V438.512C100.907 438.387 100.857 438.267 100.769 438.179C100.681 438.091 100.561 438.041 100.436 438.041C100.311 438.041 100.191 438.091 100.103 438.179C100.015 438.267 99.965 438.387 99.965 438.512V438.512Z" fill="#161616"/>
<path d="M96.155 440.314V444.533C96.1628 444.653 96.2158 444.765 96.3032 444.847C96.3907 444.929 96.5061 444.974 96.6259 444.974C96.7458 444.974 96.8612 444.929 96.9487 444.847C97.0361 444.765 97.0892 444.653 97.097 444.533V440.314C97.0861 440.197 97.0318 440.087 96.9447 440.008C96.8575 439.928 96.7439 439.884 96.6259 439.884C96.508 439.884 96.3944 439.928 96.3072 440.008C96.2201 440.087 96.1658 440.197 96.155 440.314V440.314Z" fill="#161616"/>
<path d="M111.475 438.797V444.531C111.483 444.651 111.536 444.763 111.623 444.845C111.711 444.927 111.826 444.972 111.946 444.972C112.066 444.972 112.181 444.927 112.269 444.845C112.356 444.763 112.409 444.651 112.417 444.531V438.797C112.417 438.672 112.367 438.552 112.279 438.464C112.191 438.376 112.071 438.326 111.946 438.326C111.821 438.326 111.701 438.376 111.613 438.464C111.525 438.552 111.475 438.672 111.475 438.797V438.797Z" fill="#161616"/>
<path d="M107.256 442.154V445.963C107.264 446.083 107.317 446.195 107.404 446.277C107.492 446.359 107.607 446.404 107.727 446.404C107.847 446.404 107.962 446.359 108.05 446.277C108.137 446.195 108.19 446.083 108.198 445.963V442.154C108.198 442.029 108.148 441.909 108.06 441.821C107.972 441.733 107.852 441.683 107.727 441.683C107.602 441.683 107.482 441.733 107.394 441.821C107.306 441.909 107.256 442.029 107.256 442.154V442.154Z" fill="#161616"/>
<path d="M128.719 438.921V446.376C128.727 446.496 128.78 446.608 128.867 446.69C128.955 446.772 129.07 446.817 129.19 446.817C129.31 446.817 129.425 446.772 129.513 446.69C129.6 446.608 129.653 446.496 129.661 446.376V438.921C129.65 438.804 129.596 438.694 129.509 438.615C129.422 438.535 129.308 438.491 129.19 438.491C129.072 438.491 128.958 438.535 128.871 438.615C128.784 438.694 128.73 438.804 128.719 438.921V438.921Z" fill="#161616"/>
<path d="M131.545 441.748V445.557C131.553 445.677 131.606 445.789 131.693 445.871C131.781 445.953 131.896 445.998 132.016 445.998C132.136 445.998 132.251 445.953 132.339 445.871C132.426 445.789 132.479 445.677 132.487 445.557V441.748C132.487 441.623 132.437 441.503 132.349 441.415C132.261 441.327 132.141 441.277 132.016 441.277C131.891 441.277 131.771 441.327 131.683 441.415C131.595 441.503 131.545 441.623 131.545 441.748V441.748Z" fill="#161616"/>
<path d="M135.723 438.348V445.803C135.731 445.922 135.784 446.035 135.871 446.117C135.959 446.199 136.074 446.244 136.194 446.244C136.314 446.244 136.429 446.199 136.517 446.117C136.604 446.035 136.657 445.922 136.665 445.803V438.348C136.654 438.23 136.6 438.121 136.513 438.042C136.426 437.962 136.312 437.918 136.194 437.918C136.076 437.918 135.962 437.962 135.875 438.042C135.788 438.121 135.734 438.23 135.723 438.348V438.348Z" fill="#161616"/>
<path d="M108.362 450.841V459.688C108.37 459.808 108.423 459.92 108.51 460.002C108.598 460.084 108.713 460.129 108.833 460.129C108.953 460.129 109.068 460.084 109.156 460.002C109.243 459.92 109.296 459.808 109.304 459.688V450.841C109.293 450.724 109.239 450.614 109.152 450.535C109.065 450.455 108.951 450.411 108.833 450.411C108.715 450.411 108.601 450.455 108.514 450.535C108.427 450.614 108.373 450.724 108.362 450.841V450.841Z" fill="#161616"/>
<path d="M113.441 453.79V460.098C113.449 460.218 113.502 460.33 113.589 460.412C113.677 460.494 113.792 460.539 113.912 460.539C114.032 460.539 114.147 460.494 114.235 460.412C114.322 460.33 114.375 460.218 114.383 460.098V453.79C114.342 453.217 113.441 453.217 113.441 453.79Z" fill="#161616"/>
<path d="M129.866 452.11V458.418C129.874 458.538 129.927 458.65 130.014 458.732C130.102 458.814 130.217 458.859 130.337 458.859C130.457 458.859 130.572 458.814 130.66 458.732C130.747 458.65 130.8 458.538 130.808 458.418V452.11C130.767 451.537 129.866 451.537 129.866 452.11Z" fill="#161616"/>
<path d="M140.516 449.857V460.097C140.524 460.217 140.577 460.329 140.664 460.411C140.752 460.493 140.867 460.538 140.987 460.538C141.107 460.538 141.222 460.493 141.31 460.411C141.397 460.329 141.45 460.217 141.458 460.097V449.857C141.417 449.284 140.516 449.284 140.516 449.857Z" fill="#161616"/>
<path d="M150.181 453.954V457.313C150.189 457.433 150.242 457.545 150.329 457.627C150.417 457.709 150.532 457.754 150.652 457.754C150.772 457.754 150.887 457.709 150.975 457.627C151.062 457.545 151.115 457.433 151.123 457.313V453.954C151.123 453.829 151.073 453.709 150.985 453.621C150.897 453.533 150.777 453.483 150.652 453.483C150.527 453.483 150.407 453.533 150.319 453.621C150.231 453.709 150.181 453.829 150.181 453.954V453.954Z" fill="#161616"/>
<path d="M88.9869 464.193V472.344C88.9947 472.464 89.0478 472.576 89.1352 472.658C89.2227 472.74 89.3381 472.785 89.4579 472.785C89.5778 472.785 89.6932 472.74 89.7807 472.658C89.8681 472.576 89.9211 472.464 89.9289 472.344V464.193C89.9289 464.068 89.8793 463.948 89.791 463.86C89.7027 463.772 89.5828 463.722 89.4579 463.722C89.333 463.722 89.2132 463.772 89.1249 463.86C89.0366 463.948 88.9869 464.068 88.9869 464.193Z" fill="#161616"/>
<path d="M110.614 464.481V472.919C110.622 473.039 110.675 473.151 110.762 473.233C110.85 473.315 110.965 473.36 111.085 473.36C111.205 473.36 111.32 473.315 111.408 473.233C111.495 473.151 111.548 473.039 111.556 472.919V464.481C111.556 464.356 111.506 464.236 111.418 464.148C111.33 464.06 111.21 464.01 111.085 464.01C110.96 464.01 110.84 464.06 110.752 464.148C110.664 464.236 110.614 464.356 110.614 464.481Z" fill="#161616"/>
<path d="M101.644 465.18V470.792C101.652 470.912 101.705 471.024 101.792 471.106C101.88 471.188 101.995 471.233 102.115 471.233C102.235 471.233 102.35 471.188 102.438 471.106C102.525 471.024 102.578 470.912 102.586 470.792V465.18C102.586 465.055 102.536 464.935 102.448 464.847C102.36 464.759 102.24 464.709 102.115 464.709C101.99 464.709 101.87 464.759 101.782 464.847C101.694 464.935 101.644 465.055 101.644 465.18Z" fill="#161616"/>
<path d="M104.716 463.334V467.963C104.724 468.083 104.777 468.195 104.864 468.277C104.952 468.359 105.067 468.404 105.187 468.404C105.307 468.404 105.422 468.359 105.51 468.277C105.597 468.195 105.65 468.083 105.658 467.963V463.334C105.647 463.217 105.593 463.107 105.506 463.028C105.419 462.948 105.305 462.904 105.187 462.904C105.069 462.904 104.955 462.948 104.868 463.028C104.781 463.107 104.727 463.217 104.716 463.334V463.334Z" fill="#161616"/>
<path d="M134.494 463.498V472.059C134.502 472.179 134.555 472.291 134.642 472.373C134.73 472.455 134.845 472.5 134.965 472.5C135.085 472.5 135.2 472.455 135.288 472.373C135.375 472.291 135.428 472.179 135.436 472.059V463.498C135.436 463.373 135.386 463.253 135.298 463.165C135.21 463.077 135.09 463.027 134.965 463.027C134.84 463.027 134.72 463.077 134.632 463.165C134.544 463.253 134.494 463.373 134.494 463.498V463.498Z" fill="#161616"/>
<path d="M126.753 463.334V465.423C126.761 465.543 126.814 465.655 126.901 465.737C126.989 465.819 127.104 465.864 127.224 465.864C127.344 465.864 127.459 465.819 127.547 465.737C127.634 465.655 127.687 465.543 127.695 465.423V463.334C127.684 463.217 127.63 463.107 127.543 463.028C127.456 462.948 127.342 462.904 127.224 462.904C127.106 462.904 126.992 462.948 126.905 463.028C126.818 463.107 126.764 463.217 126.753 463.334V463.334Z" fill="#161616"/>
<path d="M152.845 460.835V468.986C152.853 469.106 152.906 469.218 152.993 469.3C153.081 469.382 153.196 469.427 153.316 469.427C153.436 469.427 153.551 469.382 153.639 469.3C153.726 469.218 153.779 469.106 153.787 468.986V460.835C153.787 460.71 153.737 460.59 153.649 460.502C153.561 460.414 153.441 460.364 153.316 460.364C153.191 460.364 153.071 460.414 152.983 460.502C152.895 460.59 152.845 460.71 152.845 460.835V460.835Z" fill="#161616"/>
<path d="M156.941 466.692V471.607C156.949 471.727 157.002 471.839 157.089 471.921C157.177 472.003 157.292 472.048 157.412 472.048C157.532 472.048 157.647 472.003 157.735 471.921C157.822 471.839 157.875 471.727 157.883 471.607V466.692C157.842 466.119 156.941 466.119 156.941 466.692Z" fill="#161616"/>
<path d="M142.195 463.334V470.502C142.203 470.622 142.256 470.734 142.343 470.816C142.431 470.898 142.546 470.943 142.666 470.943C142.786 470.943 142.901 470.898 142.989 470.816C143.076 470.734 143.129 470.622 143.137 470.502V463.334C143.126 463.217 143.072 463.107 142.985 463.028C142.898 462.948 142.784 462.904 142.666 462.904C142.548 462.904 142.434 462.948 142.347 463.028C142.26 463.107 142.206 463.217 142.195 463.334V463.334Z" fill="#161616"/>
<path d="M96.8519 474.024V483.158C96.8597 483.278 96.9128 483.39 97.0002 483.472C97.0877 483.554 97.2031 483.599 97.3229 483.599C97.4428 483.599 97.5582 483.554 97.6456 483.472C97.7331 483.39 97.7861 483.278 97.7939 483.158V474.024C97.7939 473.899 97.7443 473.779 97.656 473.691C97.5677 473.603 97.4479 473.553 97.3229 473.553C97.198 473.553 97.0782 473.603 96.9899 473.691C96.9016 473.779 96.8519 473.899 96.8519 474.024Z" fill="#161616"/>
<path d="M103.982 484.797V475.663C103.974 475.543 103.921 475.431 103.834 475.349C103.746 475.267 103.631 475.222 103.511 475.222C103.391 475.222 103.276 475.267 103.188 475.349C103.101 475.431 103.048 475.543 103.04 475.663V484.797C103.04 484.922 103.09 485.042 103.178 485.13C103.266 485.218 103.386 485.268 103.511 485.268C103.636 485.268 103.756 485.218 103.844 485.13C103.932 485.042 103.982 484.922 103.982 484.797V484.797Z" fill="#161616"/>
<path d="M106.928 484.551V481.028C106.92 480.908 106.867 480.796 106.78 480.714C106.692 480.632 106.577 480.587 106.457 480.587C106.337 480.587 106.222 480.632 106.134 480.714C106.047 480.796 105.994 480.908 105.986 481.028V484.551C105.997 484.668 106.051 484.778 106.138 484.857C106.225 484.936 106.339 484.98 106.457 484.98C106.575 484.98 106.689 484.936 106.776 484.857C106.863 484.778 106.917 484.668 106.928 484.551Z" fill="#161616"/>
<path d="M113.441 473.327V482.871C113.449 482.991 113.502 483.103 113.589 483.185C113.677 483.267 113.792 483.312 113.912 483.312C114.032 483.312 114.147 483.267 114.235 483.185C114.322 483.103 114.375 482.991 114.383 482.871V473.327C114.383 473.202 114.333 473.082 114.245 472.994C114.157 472.906 114.037 472.856 113.912 472.856C113.787 472.856 113.667 472.906 113.579 472.994C113.491 473.082 113.441 473.202 113.441 473.327Z" fill="#161616"/>
<path d="M115.816 477.797V482.297C115.824 482.417 115.877 482.529 115.964 482.611C116.052 482.693 116.167 482.738 116.287 482.738C116.407 482.738 116.522 482.693 116.61 482.611C116.697 482.529 116.75 482.417 116.758 482.297V477.797C116.717 477.224 115.816 477.224 115.816 477.797Z" fill="#161616"/>
<path d="M119.048 476.114V481.029C119.056 481.149 119.109 481.261 119.196 481.343C119.284 481.425 119.399 481.47 119.519 481.47C119.639 481.47 119.754 481.425 119.842 481.343C119.929 481.261 119.982 481.149 119.99 481.029V476.114C119.949 475.541 119.048 475.541 119.048 476.114Z" fill="#161616"/>
<path d="M129.579 473.327V483.28C129.587 483.4 129.64 483.512 129.727 483.594C129.815 483.676 129.93 483.721 130.05 483.721C130.17 483.721 130.285 483.676 130.373 483.594C130.46 483.512 130.513 483.4 130.521 483.28V473.327C130.521 473.202 130.471 473.082 130.383 472.994C130.295 472.906 130.175 472.856 130.05 472.856C129.925 472.856 129.805 472.906 129.717 472.994C129.629 473.082 129.579 473.202 129.579 473.327V473.327Z" fill="#161616"/>
<path d="M140.229 476.974V482.463C140.237 482.583 140.29 482.695 140.377 482.777C140.465 482.859 140.58 482.904 140.7 482.904C140.82 482.904 140.935 482.859 141.023 482.777C141.11 482.695 141.163 482.583 141.171 482.463V476.974C141.171 476.849 141.121 476.729 141.033 476.641C140.945 476.553 140.825 476.503 140.7 476.503C140.575 476.503 140.455 476.553 140.367 476.641C140.279 476.729 140.229 476.849 140.229 476.974Z" fill="#161616"/>
<path d="M154.812 473.041V483.568C154.82 483.688 154.873 483.8 154.96 483.882C155.048 483.964 155.163 484.009 155.283 484.009C155.403 484.009 155.518 483.964 155.606 483.882C155.693 483.8 155.746 483.688 155.754 483.568V473.041C155.754 472.916 155.704 472.796 155.616 472.708C155.528 472.62 155.408 472.57 155.283 472.57C155.158 472.57 155.038 472.62 154.95 472.708C154.862 472.796 154.812 472.916 154.812 473.041V473.041Z" fill="#161616"/>
<path d="M159.314 478.202V483.24C159.322 483.36 159.375 483.472 159.462 483.554C159.55 483.636 159.665 483.681 159.785 483.681C159.905 483.681 160.02 483.636 160.108 483.554C160.195 483.472 160.248 483.36 160.256 483.24V478.202C160.245 478.084 160.191 477.975 160.104 477.896C160.017 477.816 159.903 477.772 159.785 477.772C159.667 477.772 159.553 477.816 159.466 477.896C159.379 477.975 159.325 478.084 159.314 478.202V478.202Z" fill="#161616"/>
<path d="M167.058 473.574V481.438C167.066 481.558 167.119 481.67 167.206 481.752C167.294 481.834 167.409 481.879 167.529 481.879C167.649 481.879 167.764 481.834 167.852 481.752C167.939 481.67 167.992 481.558 168 481.438V473.574C167.959 473.001 167.058 473.001 167.058 473.574Z" fill="#161616"/>
<path d="M108.32 497.046V487.912C108.312 487.792 108.259 487.68 108.172 487.598C108.084 487.516 107.969 487.471 107.849 487.471C107.729 487.471 107.614 487.516 107.526 487.598C107.439 487.68 107.386 487.792 107.378 487.912V497.046C107.389 497.163 107.443 497.273 107.53 497.352C107.617 497.432 107.731 497.476 107.849 497.476C107.967 497.476 108.081 497.432 108.168 497.352C108.255 497.273 108.309 497.163 108.32 497.046V497.046Z" fill="#161616"/>
<path d="M111.679 496.88V492.251C111.671 492.131 111.618 492.019 111.531 491.937C111.443 491.855 111.328 491.81 111.208 491.81C111.088 491.81 110.973 491.855 110.885 491.937C110.798 492.019 110.745 492.131 110.737 492.251V496.88C110.737 497.005 110.787 497.125 110.875 497.213C110.963 497.301 111.083 497.351 111.208 497.351C111.333 497.351 111.453 497.301 111.541 497.213C111.629 497.125 111.679 497.005 111.679 496.88V496.88Z" fill="#161616"/>
<path d="M121.141 486.231V496.758C121.149 496.878 121.202 496.99 121.289 497.072C121.377 497.154 121.492 497.199 121.612 497.199C121.732 497.199 121.847 497.154 121.935 497.072C122.022 496.99 122.075 496.878 122.083 496.758V486.231C122.083 486.106 122.033 485.986 121.945 485.898C121.857 485.81 121.737 485.76 121.612 485.76C121.487 485.76 121.367 485.81 121.279 485.898C121.191 485.986 121.141 486.106 121.141 486.231V486.231Z" fill="#161616"/>
<path d="M129.579 487.91V494.382C129.587 494.502 129.64 494.614 129.727 494.696C129.815 494.778 129.93 494.823 130.05 494.823C130.17 494.823 130.285 494.778 130.373 494.696C130.46 494.614 130.513 494.502 130.521 494.382V487.91C130.521 487.785 130.471 487.665 130.383 487.577C130.295 487.489 130.175 487.439 130.05 487.439C129.925 487.439 129.805 487.489 129.717 487.577C129.629 487.665 129.579 487.785 129.579 487.91V487.91Z" fill="#161616"/>
<path d="M126.63 489.18V491.72C126.638 491.84 126.691 491.952 126.778 492.034C126.866 492.116 126.981 492.161 127.101 492.161C127.221 492.161 127.336 492.116 127.424 492.034C127.511 491.952 127.564 491.84 127.572 491.72V489.18C127.572 489.055 127.522 488.935 127.434 488.847C127.346 488.759 127.226 488.709 127.101 488.709C126.976 488.709 126.856 488.759 126.768 488.847C126.68 488.935 126.63 489.055 126.63 489.18V489.18Z" fill="#161616"/>
<path d="M144.857 485.25V496.186C144.865 496.306 144.918 496.418 145.005 496.5C145.093 496.582 145.208 496.627 145.328 496.627C145.448 496.627 145.563 496.582 145.651 496.5C145.738 496.418 145.791 496.306 145.799 496.186V485.25C145.799 485.125 145.749 485.005 145.661 484.917C145.573 484.829 145.453 484.779 145.328 484.779C145.203 484.779 145.083 484.829 144.995 484.917C144.907 485.005 144.857 485.125 144.857 485.25V485.25Z" fill="#161616"/>
<path d="M148.379 489.999V494.915C148.387 495.035 148.44 495.147 148.527 495.229C148.615 495.311 148.73 495.356 148.85 495.356C148.97 495.356 149.085 495.311 149.173 495.229C149.26 495.147 149.313 495.035 149.321 494.915V490C149.28 489.427 148.379 489.427 148.379 490V489.999Z" fill="#161616"/>
<path d="M157.35 485.776V496.016C157.358 496.136 157.411 496.248 157.498 496.33C157.586 496.412 157.701 496.457 157.821 496.457C157.941 496.457 158.056 496.412 158.144 496.33C158.231 496.248 158.284 496.136 158.292 496.016V485.776C158.281 485.659 158.227 485.549 158.14 485.47C158.053 485.39 157.939 485.346 157.821 485.346C157.703 485.346 157.589 485.39 157.502 485.47C157.415 485.549 157.361 485.659 157.35 485.776Z" fill="#161616"/>
<path d="M173.653 486.64V495.487C173.661 495.607 173.714 495.719 173.801 495.801C173.889 495.883 174.004 495.928 174.124 495.928C174.244 495.928 174.359 495.883 174.447 495.801C174.534 495.719 174.587 495.607 174.595 495.487V486.64C174.554 486.067 173.653 486.067 173.653 486.64Z" fill="#161616"/>
<path d="M176.151 490.45V494.669C176.159 494.789 176.212 494.901 176.299 494.983C176.387 495.065 176.502 495.11 176.622 495.11C176.742 495.11 176.857 495.065 176.945 494.983C177.032 494.901 177.085 494.789 177.093 494.669V490.45C177.093 490.325 177.043 490.205 176.955 490.117C176.867 490.029 176.747 489.979 176.622 489.979C176.497 489.979 176.377 490.029 176.289 490.117C176.201 490.205 176.151 490.325 176.151 490.45V490.45Z" fill="#161616"/>
<path d="M165.665 459.447V452.893C165.657 452.773 165.604 452.661 165.517 452.579C165.429 452.497 165.314 452.452 165.194 452.452C165.074 452.452 164.959 452.497 164.871 452.579C164.784 452.661 164.731 452.773 164.723 452.893V459.447C164.764 460.02 165.665 460.061 165.665 459.447Z" fill="#161616"/>
<path d="M171.318 450.227V459.034C171.326 459.154 171.379 459.266 171.466 459.348C171.554 459.43 171.669 459.475 171.789 459.475C171.909 459.475 172.024 459.43 172.112 459.348C172.199 459.266 172.252 459.154 172.26 459.034V450.227C172.219 449.654 171.318 449.613 171.318 450.227Z" fill="#161616"/>
<path d="M175.578 432.695C176.67 433.334 177.558 434.269 178.138 435.394C178.718 436.518 178.967 437.784 178.855 439.044C178.814 439.617 179.715 439.617 179.797 439.044C179.92 437.624 179.635 436.199 178.974 434.936C178.314 433.673 177.306 432.626 176.07 431.917C176.019 431.885 175.962 431.863 175.902 431.852C175.843 431.842 175.782 431.844 175.723 431.857C175.664 431.87 175.608 431.895 175.559 431.93C175.509 431.965 175.467 432.009 175.435 432.06C175.403 432.111 175.381 432.168 175.37 432.228C175.36 432.287 175.362 432.348 175.375 432.407C175.388 432.466 175.413 432.522 175.448 432.571C175.483 432.621 175.527 432.663 175.578 432.695V432.695Z" fill="#161616"/>
<path d="M81.7769 463.128C81.2333 464.001 80.8987 464.987 80.7993 466.011C80.7 467.034 80.8384 468.067 81.2039 469.028C81.4039 469.561 82.3099 469.356 82.1039 468.782C81.7773 467.936 81.6518 467.026 81.7371 466.124C81.8225 465.222 82.1165 464.351 82.5959 463.582C82.649 463.474 82.6584 463.35 82.6222 463.235C82.586 463.12 82.507 463.024 82.4016 462.966C82.2962 462.908 82.1725 462.893 82.0562 462.923C81.9399 462.954 81.8399 463.028 81.7769 463.131V463.128Z" fill="#161616"/>
<path d="M77.1489 458.5C74.7971 461.433 73.5631 465.105 73.6669 468.863C73.6747 468.983 73.7278 469.095 73.8152 469.177C73.9027 469.259 74.0181 469.304 74.1379 469.304C74.2578 469.304 74.3732 469.259 74.4607 469.177C74.5481 469.095 74.6011 468.983 74.6089 468.863C74.5108 465.334 75.6563 461.883 77.8449 459.114C78.1729 458.704 77.5169 458.049 77.1449 458.5H77.1489Z" fill="#161616"/>
<path d="M175.168 471.567C175.973 471.98 176.648 472.609 177.118 473.382C177.588 474.156 177.834 475.045 177.83 475.95C177.838 476.07 177.891 476.182 177.978 476.264C178.066 476.346 178.181 476.391 178.301 476.391C178.421 476.391 178.536 476.346 178.624 476.264C178.711 476.182 178.764 476.07 178.772 475.95C178.778 474.886 178.491 473.842 177.942 472.931C177.393 472.021 176.603 471.279 175.659 470.789C175.127 470.502 174.635 471.281 175.167 471.567H175.168Z" fill="#161616"/>
<path opacity="0.15" d="M132.692 435.972C137.497 435.262 142.401 436.185 146.619 438.593C148.027 439.434 149.321 440.452 150.469 441.624C150.346 443.508 150.182 445.392 150.059 447.277C144.038 447.523 138.059 447.768 132.036 447.977C132.855 448.018 139.409 448.387 142.972 453.711C144.166 455.518 144.859 457.61 144.979 459.773C144.589 462.565 143.473 465.207 141.743 467.433C139.718 469.986 136.981 471.882 133.879 472.881C135.033 473.488 136.055 474.318 136.884 475.323C137.714 476.329 138.335 477.49 138.712 478.738C139.159 480.388 139.159 482.126 138.712 483.776C134.739 488.077 130.766 492.391 126.793 496.719L181.516 497.333C182.723 496.697 183.708 495.71 184.343 494.503C184.935 493.277 185.172 491.91 185.028 490.556C184.883 489.202 184.362 487.916 183.524 486.843C180.657 483.197 174.144 484.467 173.407 484.631C174.443 483.859 175.277 482.85 175.84 481.688C176.404 480.525 176.679 479.245 176.643 477.954C176.454 475.999 175.514 474.193 174.022 472.916L165.338 472.302C166.089 471.496 166.658 470.536 167.004 469.49C167.35 468.444 167.467 467.335 167.345 466.24C167.154 464.944 166.626 463.72 165.813 462.693C165.001 461.665 163.933 460.868 162.716 460.383C166.607 460.342 169.966 460.26 172.628 460.183C180.37 459.983 182.128 459.855 183.528 458.383C185.412 456.335 186.028 452.362 184.142 449.904C183.318 448.892 182.178 448.186 180.906 447.897C177.875 447.774 174.844 447.61 171.813 447.487C172.593 447.513 173.371 447.385 174.102 447.111C174.833 446.836 175.503 446.42 176.073 445.887C176.638 445.227 177.057 444.456 177.304 443.623C177.551 442.79 177.62 441.915 177.507 441.054C177.43 439.156 176.64 437.357 175.295 436.016C173.288 434.255 170.707 434.746 165.995 434.992C162.309 435.192 158.581 434.828 154.895 434.992C147.192 435.316 139.409 435.685 132.692 435.972Z" fill="#3D3D3D"/>
<path d="M133.799 397.551C135.069 404.228 136.299 410.945 137.567 417.622C116.431 425.282 106.15 430.566 106.806 433.515C107.584 437.078 124.187 437.215 156.614 433.925C155.221 419.998 153.829 406.058 152.436 392.104C146.21 393.947 139.984 395.749 133.799 397.551Z" fill="#161616" stroke="#EEFF88" stroke-width="0.955" stroke-miterlimit="10"/>
<path d="M232.718 313.869C223.871 317.515 220.143 316.613 208.961 319.685C192.414 324.331 177.107 332.6 164.15 343.893L165.502 389.605C164.56 390.711 154.238 402.426 138.591 400.828C131.184 399.959 124.337 396.455 119.299 390.957C119.012 376.908 119.258 361.916 120.199 346.146C120.772 337.012 121.51 328.164 122.452 319.685C123.845 317.719 125.975 314.893 128.719 311.616C150.264 285.975 176.069 274.588 190.119 268.607C204.128 262.627 212.893 258.899 225.959 257.834C229.441 257.547 264.259 255.09 269.869 269.057C275.071 281.797 254.55 304.899 232.718 313.869Z" fill="#EEFF88" stroke="#161616" stroke-width="0.955" stroke-miterlimit="10"/>
<path opacity="0.16" d="M267.617 264.757C259.834 259.391 242.672 282.247 208.511 303.792C175.661 324.477 158.457 324.149 148.545 344.261C145.514 350.361 142.36 360.031 140.435 369.861C138.501 379.883 137.882 390.113 138.592 400.295C141.705 400.159 144.794 399.693 147.808 398.902C154.264 397.172 160.253 394.024 165.339 389.686C164.888 374.162 164.397 358.638 163.946 343.155C172.263 336.358 181.401 330.633 191.146 326.115C214.207 315.424 222.846 320.015 241.855 309.075C246.238 306.575 271.019 292.281 270.445 273.603C270.279 270.614 270.236 266.559 267.617 264.757Z" fill="#3D3D3D"/>
<path opacity="0.25" d="M270.811 272.13C269.091 270.737 262.411 280.076 246.399 291.504C226.492 305.676 216.907 305.513 194.994 318.704C183.553 325.596 172.835 333.624 163.004 342.666C166.792 341.034 170.485 339.188 174.063 337.136C183.484 331.647 185.778 328.289 192.946 324.684C195.527 323.414 200.36 322.103 209.986 319.605C226.821 315.222 229.237 315.427 235.341 312.683C241.242 310.013 246.688 306.433 251.479 302.074C264.831 290.361 272.982 273.85 270.811 272.13Z" fill="#3D3D3D"/>
<path opacity="0.2" d="M163.454 343.115C158.211 361.998 152.982 380.894 147.766 399.804C150.652 399.045 153.441 397.959 156.081 396.568C159.681 394.654 162.945 392.165 165.743 389.2C164.969 373.835 164.232 358.475 163.454 343.115Z" fill="#3D3D3D"/>
<path d="M267.043 461.531C268.313 468.208 269.543 474.925 270.811 481.602C251.682 491.228 242.589 497.208 243.411 499.543C244.435 502.369 259.863 499.925 289.696 492.211C288.344 480.169 287.034 468.126 285.682 456.084C279.454 457.927 273.269 459.729 267.043 461.531Z" fill="#161616" stroke="#EEFF88" stroke-width="0.955" stroke-miterlimit="10"/>
<path d="M283.427 253.37C284.861 264.429 286.704 281.1 287.605 301.458C288.957 332.875 286.991 350.365 286.663 373.589C286.321 402.245 288.487 430.877 293.135 459.156C287.182 463.109 280.32 465.481 273.197 466.047C266.073 466.613 258.923 465.355 252.42 462.392C251.52 444.943 249.92 426.392 247.341 406.892C243.013 374.254 236.375 341.964 227.475 310.266C222.56 303.466 217.604 296.708 212.688 289.909C230.588 277.252 248.474 264.609 266.346 251.98C272.001 252.469 277.693 252.919 283.427 253.37Z" fill="#EEFF88" stroke="#161616" stroke-width="0.955" stroke-miterlimit="10"/>
<path d="M219.446 293.43C218.176 291.669 216.946 289.866 215.678 288.105C215.309 289.498 214.941 290.89 214.572 292.324C220.634 288.556 226.572 284.582 232.267 280.241C237.018 276.641 241.442 272.663 246.235 269.141C249.266 266.888 252.379 264.758 255.492 262.628C258.482 260.621 261.513 258.081 264.792 256.484C266.553 255.624 268.642 255.747 270.526 255.747C274.126 255.747 277.694 255.87 281.258 256.075C285.19 256.275 285.19 250.136 281.258 249.931C277.694 249.767 274.09 249.603 270.526 249.603C268.224 249.484 265.917 249.72 263.686 250.303C260.286 251.409 257.214 254.071 254.306 256.078C250.947 258.331 247.629 260.584 244.353 262.959C239.274 266.645 234.604 270.782 229.653 274.592C223.817 279.031 217.761 283.173 211.508 287.003C210.81 287.423 210.304 288.1 210.097 288.888C209.891 289.676 210 290.513 210.402 291.222C211.672 292.983 212.902 294.786 214.17 296.547C216.423 299.742 221.748 296.67 219.454 293.434L219.446 293.43Z" fill="#EEFF88"/>
<path opacity="0.14" d="M242.712 258.286C249.508 278.348 255.048 298.813 259.301 319.563C268.983 367.307 271.783 416.19 267.616 464.727C269.986 465.574 272.474 466.044 274.989 466.12C284.205 466.366 290.841 461.041 292.971 459.198C290.395 446.259 288.549 433.186 287.441 420.04C284.41 384.2 288.219 363.883 288.834 333.409C289.321 307.64 287.47 281.879 283.304 256.444C269.746 257.057 256.215 257.671 242.712 258.286Z" fill="#3D3D3D"/>
<path opacity="0.2" d="M284.656 275.366C283.509 315.712 281.516 357.191 278.676 399.804C277.201 421.8 275.508 443.454 273.597 464.767C277.031 465.381 280.566 465.113 283.868 463.988C287.171 462.864 290.134 460.919 292.48 458.336C288.878 437.631 286.878 416.679 286.5 395.666C286.049 368.304 288.63 354.337 287.893 322.388C287.4 302.073 285.844 285.606 284.656 275.366Z" fill="#3D3D3D"/>
<path d="M117.128 108.943C117.66 107.714 112.418 105.175 112.95 103.743C113.482 102.268 119.995 101.9 124.378 105.136C128.966 108.495 128.678 113.41 131.3 119.718C134.29 126.804 139 130.654 146.169 136.553C150.469 140.117 167.264 153.47 191.469 152.732C200.834 152.407 210.023 150.089 218.421 145.932C217.479 157.688 216.496 169.484 215.554 181.24C208.282 182.924 200.792 183.464 193.354 182.84C160.754 180.014 139.819 154.864 133.347 147.122C127.774 140.424 123.004 133.097 119.134 125.29C113.636 126.977 107.859 127.562 102.134 127.01C97.0549 126.518 90.9929 124.962 91.0339 123.528C91.0749 121.644 101.52 120.374 101.434 119.719C101.352 119.146 93.1189 121.398 91.0339 118.326C89.3959 115.909 91.6889 110.462 95.5399 108.25C96.7279 107.595 98.0799 107.185 101.44 107.226C110.533 107.223 116.636 110.049 117.128 108.943Z" fill="white" stroke="#161616" stroke-width="0.955" stroke-miterlimit="10"/>
<path d="M90.9099 115.988C92.9989 115.496 95.4159 116.52 97.5459 116.602C99.4279 116.678 101.312 116.526 103.158 116.151C103.936 115.987 103.609 114.799 102.83 114.963C100.511 115.434 98.1307 115.517 95.7849 115.209C93.9849 114.963 92.3849 114.39 90.5849 114.799C89.8069 114.963 90.1339 116.151 90.9129 115.987L90.9099 115.988Z" fill="#161616"/>
<path d="M92.6329 111.933C95.0909 111.441 97.2619 112.465 99.6329 112.588C101.738 112.641 103.839 112.365 105.859 111.769C106.016 111.725 106.15 111.621 106.231 111.479C106.312 111.337 106.332 111.168 106.289 111.011C106.245 110.853 106.141 110.72 105.999 110.639C105.857 110.558 105.688 110.537 105.531 110.581C102.942 111.364 100.204 111.519 97.5439 111.032C95.8248 110.555 94.0249 110.444 92.2599 110.704C91.5229 110.904 91.8499 112.097 92.6289 111.933H92.6329Z" fill="#161616"/>
<path d="M115.284 113.163C116.298 114.244 117.532 115.096 118.903 115.661C120.273 116.226 121.748 116.492 123.23 116.44C124.008 116.399 124.008 115.17 123.23 115.211C121.913 115.285 120.596 115.062 119.377 114.559C118.157 114.055 117.066 113.284 116.185 112.303C116.069 112.192 115.915 112.13 115.754 112.13C115.594 112.129 115.439 112.191 115.323 112.302C115.207 112.413 115.138 112.564 115.131 112.725C115.124 112.885 115.179 113.042 115.285 113.163H115.284Z" fill="#161616"/>
<path opacity="0.18" d="M91.036 117.996C91.159 116.89 100.088 116.603 108.28 117.796C112.704 118.41 117.005 119.025 121.06 120.95C129.907 125.087 132.816 132.992 137.403 140.242C137.403 140.242 147.684 156.342 166.075 165.351C184.343 174.28 205.192 168.3 216.948 163.551L215.596 181.246C207.339 182.979 198.847 183.284 190.487 182.146C159.48 177.763 140.024 153.924 132.282 144.462C127.322 138.406 122.972 131.874 119.298 124.962C113.795 127.009 107.898 127.78 102.054 127.215C97.098 126.683 91.2399 125.044 91.2809 123.615C91.3629 121.772 101.234 120.666 101.152 120.256C101.111 120.056 98.326 120.666 94.885 119.805C93.534 119.47 90.995 118.61 91.036 117.996Z" fill="#3D3D3D"/>
<path opacity="0.24" d="M184.057 175.135C195.321 175.158 206.36 171.976 215.883 165.96C215.683 171.203 215.432 176.405 215.228 181.648C202.348 183.822 189.135 182.896 176.684 178.948C147.315 169.568 132.897 146.221 129.17 139.708C130.358 141.834 149.651 174.685 184.057 175.135Z" fill="#3D3D3D"/>
<path opacity="0.19" d="M104.962 124.713C113.728 124.754 119.626 123.443 119.749 124.058C119.831 124.55 116.185 126.024 112.335 126.758C101.153 128.888 90.9129 124.258 91.0349 123.604C91.1579 123.157 95.7459 124.672 104.962 124.713Z" fill="#3D3D3D"/>
<path d="M114.547 68.0239C116.832 68.0239 119.065 68.7014 120.964 69.9706C122.864 71.2399 124.344 73.0439 125.219 75.1545C126.093 77.2652 126.322 79.5877 125.876 81.8284C125.43 84.0691 124.33 86.1273 122.715 87.7427C121.099 89.3582 119.041 90.4583 116.8 90.904C114.56 91.3497 112.237 91.1209 110.127 90.2467C108.016 89.3724 106.212 87.8919 104.943 85.9923C103.673 84.0928 102.996 81.8595 102.996 79.5749C102.996 76.5114 104.213 73.5734 106.379 71.4071C108.545 69.2409 111.483 68.0239 114.547 68.0239V68.0239Z" fill="#1ABC82"/>
<path d="M112.212 91.8619C119.451 91.8619 125.319 85.9754 125.319 78.7139C125.319 71.4525 119.451 65.5659 112.212 65.5659C104.973 65.5659 99.1049 71.4525 99.1049 78.7139C99.1049 85.9754 104.973 91.8619 112.212 91.8619Z" stroke="#161616" stroke-width="0.637" stroke-miterlimit="10"/>
<path d="M114.016 71.5059C111.435 71.3419 104.8 73.8409 107.258 77.5679C108.692 79.7389 111.477 78.3049 113.484 78.8379C116.065 79.5379 115.778 82.6469 114.184 84.1629C113.403 84.8667 112.384 85.246 111.333 85.2231C110.282 85.2002 109.28 84.777 108.531 84.0399C107.958 83.5079 107.056 84.3679 107.671 84.8999C110.907 87.8489 116.682 86.1699 116.682 81.3769C116.707 80.4082 116.352 79.468 115.694 78.7566C115.036 78.0452 114.127 77.6187 113.159 77.5679C111.643 77.3679 107.384 78.5099 108.367 75.3969C109.022 73.2669 112.176 72.6119 114.061 72.7349C114.839 72.7759 114.839 71.5469 114.02 71.5059H114.016Z" fill="#161616"/>
<path d="M112.622 72.0789C112.745 70.7269 112.868 69.4169 112.991 68.0649C113.073 67.2869 111.844 67.2869 111.762 68.0649C111.639 69.4169 111.516 70.7269 111.393 72.0789C111.311 72.8569 112.54 72.8569 112.622 72.0789Z" fill="#161616"/>
<path d="M111.803 86.7429C111.926 87.6849 112.049 88.6679 112.131 89.6099C112.213 90.3879 113.442 90.3879 113.36 89.6099C113.237 88.6679 113.114 87.6849 113.032 86.7429C112.95 85.9649 111.721 85.9649 111.803 86.7429Z" fill="#161616"/>
<path d="M230.793 143.022C226.842 143.222 222.919 143.797 219.078 144.742C216.541 145.36 214.05 146.154 211.623 147.118C207.696 154.984 205.133 163.461 204.045 172.186C202.161 187.71 205.929 197.704 208.51 213.147C210.941 228.152 211.354 243.416 209.739 258.531C218.538 266.586 229.557 271.809 241.363 273.522C264.792 276.799 281.996 264.429 285.563 261.766C287.734 248.331 289.782 234.527 291.625 220.396C294.779 196.475 297.155 173.332 298.916 151.091C287.563 140.401 277.734 137.533 270.811 136.959C257.499 135.813 245.457 142.203 230.793 143.022Z" fill="#46A0F2"/>
<path opacity="0.17" d="M249.185 153.345C252.715 156.951 255.784 160.982 258.319 165.345C273.27 191.314 264.013 221.625 259.876 235.06C255.666 248.732 249.231 261.616 240.829 273.194C245.835 274.041 250.931 274.22 255.984 273.726C266.591 272.591 276.695 268.614 285.23 262.216C289.08 240.343 292.357 217.078 294.897 192.501C296.372 178.083 297.478 164.033 298.297 150.476C296.052 148.323 293.596 146.402 290.965 144.742C285.681 141.342 277.365 136.058 267.986 137.697C256.025 139.746 249.963 151.706 249.185 153.345Z" fill="#3D3D3D" stroke="#46A0F2" stroke-width="0.318"/>
<path opacity="0.11" d="M296.452 159.857C294.363 165.714 291.127 175.057 287.852 186.768C278.103 221.134 278.8 235.88 266.962 253.616C261.591 261.6 254.868 268.586 247.096 274.26C260.645 274.162 273.849 269.98 284.984 262.26C288.179 245.139 291.005 226.665 293.094 206.881C294.773 190.414 295.879 174.689 296.452 159.857Z" fill="#3D3D3D"/>
<path d="M277.447 238.707C276.587 237.107 277.488 234.734 278.84 233.464C281.34 231.088 285.885 231.989 287.933 234.57C288.22 234.939 289.612 236.659 289.039 238.134C287.81 241.123 279.208 241.902 277.447 238.707Z" fill="white" stroke="#161616" stroke-width="0.955" stroke-miterlimit="10"/>
<path d="M288.997 144.128C305.494 155.532 318.454 171.343 326.397 189.758C328.804 195.361 330.735 201.157 332.172 207.084C326.955 219.232 319.058 230.042 309.072 238.706C304.985 242.235 300.569 245.362 295.883 248.045C293.067 251.187 289.983 254.079 286.667 256.688C284.046 258.777 280.482 261.562 279.667 260.866C279.012 260.293 280.158 257.466 281.92 255.5C283.243 254.17 284.813 253.112 286.542 252.386C284.899 252.582 283.348 253.251 282.077 254.311C279.619 256.236 279.742 258.038 278.513 258.325C275.932 258.939 269.993 252.713 270.894 246.405C271.631 241.121 276.833 238.295 278.594 237.312C282.041 235.468 285.994 234.793 289.858 235.387C296.002 225.843 302.146 216.34 308.29 206.797C306.07 205.004 303.963 203.075 301.982 201.022C299.156 198.114 291.209 189.84 287.4 178.494C282.28 163.257 286.99 149.207 288.997 144.128Z" fill="white" stroke="#161616" stroke-width="0.955" stroke-miterlimit="10"/>
<path d="M271.876 251.611C273.342 248.281 276.001 245.622 279.331 244.156C280.068 243.828 279.413 242.763 278.717 243.091C275.191 244.651 272.372 247.47 270.812 250.996C270.484 251.696 271.549 252.307 271.877 251.61L271.876 251.611Z" fill="#161616"/>
<path d="M276.381 257.298C275.111 253.448 278.839 249.475 281.911 247.713C282.046 247.629 282.144 247.495 282.183 247.34C282.222 247.186 282.199 247.022 282.119 246.884C282.039 246.745 281.909 246.643 281.756 246.599C281.602 246.556 281.438 246.573 281.297 246.648C277.733 248.696 273.719 253.202 275.197 257.625C275.443 258.362 276.631 258.035 276.385 257.297L276.381 257.298Z" fill="#161616"/>
<path opacity="0.18" d="M287.114 150.887C294.012 158.001 300.442 165.553 306.365 173.497C316.765 187.383 321.93 194.346 322.299 201.678C322.954 215.278 312.755 232.278 299.32 238.747C295.429 240.631 285.312 244.441 279.495 251.895C277.816 254.025 276.095 256.974 276.71 257.629C277.243 258.161 279.21 256.769 279.864 257.429C280.642 258.207 278.758 260.583 279.291 261.115C279.946 261.77 283.591 259.436 287.278 256.486C290.273 254.052 293.068 251.381 295.634 248.499C299.963 246.03 304.061 243.179 307.881 239.979C318.52 230.989 326.895 219.622 332.33 206.798C331.087 202.008 329.54 197.302 327.701 192.708C323.164 181.312 316.785 170.74 308.818 161.414C302.993 154.671 296.332 148.697 288.998 143.637C288.342 146.054 287.73 148.47 287.114 150.887Z" fill="#3D3D3D"/>
<path opacity="0.21" d="M326.395 212.778C322.463 217.857 320.456 221.093 318.817 223.51C315.704 228.016 311.075 232.316 301.777 240.918C298.459 243.99 293.954 248.086 288.424 252.797C282.608 257.835 279.781 260.416 279.904 260.58C280.068 260.785 285.693 256.525 296.78 247.8C299.678 246.118 302.469 244.257 305.136 242.229C324.224 227.606 332.784 206.593 332.006 206.102C331.679 205.938 329.917 208.186 326.395 212.778Z" fill="#3D3D3D"/>
<path d="M222.232 75.8479C210.19 85.7189 210.681 105.748 215.392 118.693C217.747 125.068 221.482 130.845 226.328 135.61L224.362 149.864C228.95 151.973 233.9 153.183 238.944 153.428C254.919 154.206 266.344 144.867 269.46 142.164C266.634 132.702 263.808 123.226 260.981 113.737C260.612 111.075 259.998 106.979 259.343 101.981C257.582 88.9559 257.664 88.2589 256.885 86.1289C256.557 85.2689 251.642 72.7759 240.214 70.564C230.998 68.843 223.379 74.9059 222.232 75.8479Z" fill="white" stroke="#161616" stroke-width="0.955" stroke-miterlimit="10"/>
<path d="M212.319 109.189C211.31 113.174 210.992 117.302 211.377 121.395C211.705 124.836 212.277 130.816 216.577 136.595C219.994 141.073 224.718 144.378 230.096 146.053C229.831 145.211 229.639 144.347 229.523 143.472C229.42 142.547 229.42 141.612 229.523 140.687C232.349 142.243 235.217 143.759 238.043 145.316C245.211 138.721 247.587 132.659 248.406 128.276C249.061 124.835 249.471 118.527 250.987 106.976C251.274 104.928 251.806 101.242 254.141 100.299C254.727 100.076 255.361 100.011 255.979 100.112C256.598 100.212 257.179 100.475 257.664 100.872C260.49 103.248 257.623 110.129 258.238 110.334C258.853 110.539 263.809 103.616 262.129 95.711C261.418 92.5521 259.811 89.6653 257.501 87.396C254.388 92.3113 250.933 97.378 247.138 102.596C244.721 105.914 242.305 109.027 239.929 112.058C238.773 112.719 237.45 113.032 236.12 112.958C235.245 112.802 234.392 112.541 233.58 112.18C230.221 111.238 228.419 115.211 225.101 114.68C222.401 114.229 222.152 111.321 219.162 111.239C217.728 111.198 217.155 111.853 215.68 111.567C214.344 111.135 213.171 110.305 212.319 109.189V109.189Z" fill="#161616" stroke="#161616" stroke-width="0.955" stroke-miterlimit="10"/>
<path d="M226.246 97.5569C225.225 102.292 224.568 107.098 224.282 111.934C224.283 112.043 224.314 112.151 224.369 112.245C224.425 112.339 224.505 112.417 224.6 112.471C224.695 112.524 224.803 112.552 224.913 112.552C225.022 112.551 225.129 112.521 225.224 112.466C226.903 111.606 228.624 110.705 230.303 109.845C231.003 109.476 230.385 108.411 229.689 108.78C228.01 109.64 226.289 110.541 224.61 111.401C224.938 111.565 225.224 111.77 225.552 111.933C225.823 107.207 226.466 102.509 227.477 97.8839C227.6 97.1059 226.412 96.7779 226.248 97.5559L226.246 97.5569Z" fill="#161616"/>
<path d="M219.692 102.472C220.212 102.472 220.634 101.408 220.634 100.096C220.634 98.7837 220.212 97.72 219.692 97.72C219.172 97.72 218.75 98.7837 218.75 100.096C218.75 101.408 219.172 102.472 219.692 102.472Z" fill="#161616" stroke="#161616" stroke-width="0.955" stroke-miterlimit="10"/>
<path d="M235.585 102.472C236.286 102.472 236.855 101.408 236.855 100.096C236.855 98.7837 236.286 97.72 235.585 97.72C234.884 97.72 234.315 98.7837 234.315 100.096C234.315 101.408 234.884 102.472 235.585 102.472Z" fill="#161616" stroke="#161616" stroke-width="0.955" stroke-miterlimit="10"/>
<path d="M217.395 95.4679C218.173 94.0339 219.895 94.3619 221.163 94.8129C221.9 95.0589 222.228 93.8709 221.491 93.6249C219.691 92.9699 217.391 92.9249 216.33 94.8539C215.961 95.5089 217.03 96.1649 217.395 95.4679V95.4679Z" fill="#161616"/>
<path d="M232.882 93.7879C233.32 93.3446 233.849 93.0027 234.433 92.7861C235.017 92.5694 235.642 92.4835 236.263 92.5342C236.883 92.5849 237.486 92.7711 238.027 93.0796C238.568 93.3881 239.035 93.8115 239.395 94.3199C239.846 94.9339 240.911 94.3199 240.46 93.7059C240 93.0425 239.4 92.4879 238.702 92.081C238.004 91.6742 237.226 91.4249 236.422 91.3508C235.618 91.2766 234.808 91.3794 234.047 91.6519C233.287 91.9243 232.596 92.3599 232.022 92.9279C231.449 93.4599 232.309 94.3209 232.882 93.7879V93.7879Z" fill="#161616"/>
<path d="M202.817 87.93C220.062 88.954 237.251 90.4013 254.386 92.272C256.721 92.518 256.721 88.831 254.386 88.586C237.223 86.702 220.034 85.2546 202.817 84.244C200.441 84.121 200.441 87.808 202.817 87.93Z" fill="#161616"/>
<path d="M213.958 85.392C214.483 79.7903 216.795 74.5058 220.553 70.319C227.393 63.069 240.053 60.038 249.881 66.182C257.581 71.015 261.719 80.354 260.326 89.857C244.883 88.3816 229.427 86.8933 213.958 85.392Z" fill="#1FA978"/>
<path opacity="0.69" d="M235.751 64.297C233.744 65.976 233.744 69.54 234.44 73.308C235.578 78.38 237.529 83.2348 240.215 87.685C246.933 88.463 253.65 89.285 260.368 90.061C260.775 88.0398 260.886 85.97 260.696 83.917C260.305 80.7954 259.318 77.778 257.788 75.029C252.871 66.59 240.009 60.692 235.751 64.297Z" fill="#17855E"/>
<path opacity="0.24" d="M256.802 112.385C255.708 112.961 254.447 113.135 253.238 112.877C256.716 119.427 257.938 126.941 256.717 134.257C255.495 141.572 251.897 148.281 246.48 153.346C249.546 152.721 252.548 151.817 255.45 150.646C260.575 148.554 265.321 145.634 269.499 142.003L259.668 107.473C259.67 107.674 259.506 110.951 256.802 112.385Z" fill="#3D3D3D"/>
<path opacity="0.19" d="M241.647 90.921C242.318 93.8486 242.457 96.8732 242.057 99.85C241.389 104.431 239.524 108.755 236.65 112.384C237.592 112.097 238.534 111.77 239.476 111.484C241.36 109.19 243.285 106.733 245.169 104.234C248.282 100.097 251.149 96.001 253.769 92.069C249.716 91.699 245.702 91.289 241.647 90.921Z" fill="#3D3D3D"/>
<path d="M42.7 21.66C42.7 20.708 42.9613 19.8773 43.484 19.168C44.0253 18.44 44.772 17.88 45.724 17.488C46.676 17.096 47.768 16.9 49 16.9C49.616 16.9 50.2413 16.9467 50.876 17.04C51.5106 17.1333 52.0613 17.2827 52.528 17.488V16.704C52.528 15.7707 52.248 15.052 51.688 14.548C51.1466 14.044 50.3346 13.792 49.252 13.792C48.4493 13.792 47.684 13.932 46.956 14.212C46.228 14.492 45.4626 14.9027 44.66 15.444L43.456 12.98C44.4266 12.3453 45.416 11.8693 46.424 11.552C47.4506 11.2347 48.524 11.076 49.644 11.076C51.7346 11.076 53.3586 11.5987 54.516 12.644C55.692 13.6893 56.28 15.1827 56.28 17.124V21.8C56.28 22.192 56.3453 22.472 56.476 22.64C56.6253 22.808 56.8586 22.9107 57.176 22.948V26C56.84 26.056 56.532 26.1027 56.252 26.14C55.9906 26.1773 55.7666 26.196 55.58 26.196C54.8333 26.196 54.264 26.028 53.872 25.692C53.4986 25.356 53.2653 24.9453 53.172 24.46L53.088 23.704C52.4533 24.5253 51.66 25.16 50.708 25.608C49.756 26.056 48.7853 26.28 47.796 26.28C46.8253 26.28 45.948 26.084 45.164 25.692C44.3986 25.2813 43.792 24.7307 43.344 24.04C42.9146 23.3307 42.7 22.5373 42.7 21.66ZM51.828 22.416C52.0333 22.192 52.2013 21.968 52.332 21.744C52.4626 21.52 52.528 21.3147 52.528 21.128V19.644C52.08 19.4573 51.5946 19.3173 51.072 19.224C50.5493 19.112 50.0546 19.056 49.588 19.056C48.6173 19.056 47.8146 19.2707 47.18 19.7C46.564 20.1107 46.256 20.6613 46.256 21.352C46.256 21.7253 46.3586 22.08 46.564 22.416C46.7693 22.752 47.068 23.0227 47.46 23.228C47.852 23.4333 48.3186 23.536 48.86 23.536C49.42 23.536 49.9706 23.4333 50.512 23.228C51.0533 23.004 51.492 22.7333 51.828 22.416ZM66.6181 26.28C65.4234 26.28 64.3501 26.084 63.3981 25.692C62.4461 25.2813 61.6341 24.7213 60.9621 24.012C60.2901 23.284 59.7674 22.4627 59.3941 21.548C59.0394 20.6333 58.8621 19.672 58.8621 18.664C58.8621 17.2827 59.1701 16.0227 59.7861 14.884C60.4208 13.7267 61.3168 12.8027 62.4741 12.112C63.6314 11.4213 65.0034 11.076 66.5901 11.076C68.1768 11.076 69.5394 11.4213 70.6781 12.112C71.8168 12.8027 72.6661 13.708 73.2261 14.828L69.5581 15.948C69.2408 15.4067 68.8208 14.996 68.2981 14.716C67.7754 14.4173 67.1968 14.268 66.5621 14.268C65.8528 14.268 65.1994 14.4547 64.6021 14.828C64.0234 15.1827 63.5661 15.696 63.2301 16.368C62.8941 17.0213 62.7261 17.7867 62.7261 18.664C62.7261 19.5227 62.8941 20.288 63.2301 20.96C63.5848 21.6133 64.0514 22.136 64.6301 22.528C65.2088 22.9013 65.8528 23.088 66.5621 23.088C67.0101 23.088 67.4301 23.0133 67.8221 22.864C68.2328 22.7147 68.5968 22.5093 68.9141 22.248C69.2314 21.9867 69.4648 21.688 69.6141 21.352L73.2821 22.472C72.9461 23.2 72.4514 23.8533 71.7981 24.432C71.1634 25.0107 70.4074 25.468 69.5301 25.804C68.6714 26.1213 67.7008 26.28 66.6181 26.28ZM89.2268 26H85.4748V17.768C85.4748 16.6293 85.2508 15.78 84.8028 15.22C84.3734 14.66 83.7761 14.38 83.0108 14.38C82.5628 14.38 82.0868 14.5107 81.5828 14.772C81.0788 15.0333 80.6214 15.3973 80.2108 15.864C79.8188 16.312 79.5294 16.8347 79.3428 17.432V26H75.5908V5.56H79.3428V14.044C79.8841 13.1107 80.6214 12.3827 81.5548 11.86C82.4881 11.3373 83.5054 11.076 84.6068 11.076C85.5588 11.076 86.3334 11.244 86.9308 11.58C87.5281 11.8973 87.9948 12.336 88.3308 12.896C88.6668 13.4373 88.9001 14.0533 89.0308 14.744C89.1614 15.416 89.2268 16.116 89.2268 16.844V26ZM92.4892 26V11.328H96.2412V26H92.4892ZM92.4892 9.284V5.56H96.2412V9.284H92.4892ZM106.43 26.28C105.254 26.28 104.19 26.084 103.238 25.692C102.286 25.2813 101.474 24.7307 100.802 24.04C100.13 23.3307 99.6073 22.528 99.2339 21.632C98.8793 20.7173 98.7019 19.756 98.7019 18.748C98.7019 17.348 99.0099 16.0693 99.6259 14.912C100.261 13.7547 101.157 12.8307 102.314 12.14C103.49 11.4307 104.871 11.076 106.458 11.076C108.063 11.076 109.435 11.4307 110.574 12.14C111.713 12.8307 112.581 13.7547 113.178 14.912C113.794 16.0507 114.102 17.2827 114.102 18.608C114.102 18.832 114.093 19.0653 114.074 19.308C114.055 19.532 114.037 19.7187 114.018 19.868H102.678C102.753 20.6147 102.967 21.268 103.322 21.828C103.695 22.388 104.162 22.8173 104.722 23.116C105.301 23.396 105.917 23.536 106.57 23.536C107.317 23.536 108.017 23.3587 108.67 23.004C109.342 22.6307 109.799 22.1453 110.042 21.548L113.262 22.444C112.907 23.1907 112.394 23.8533 111.722 24.432C111.069 25.0107 110.294 25.468 109.398 25.804C108.502 26.1213 107.513 26.28 106.43 26.28ZM102.594 17.488H110.266C110.191 16.7413 109.977 16.0973 109.622 15.556C109.286 14.996 108.838 14.5667 108.278 14.268C107.718 13.9507 107.093 13.792 106.402 13.792C105.73 13.792 105.114 13.9507 104.554 14.268C104.013 14.5667 103.565 14.996 103.21 15.556C102.874 16.0973 102.669 16.7413 102.594 17.488ZM119.926 26L114.522 11.328H118.414L122.11 22.584L125.834 11.328H129.39L124.014 26H119.926ZM137.684 26.28C136.508 26.28 135.444 26.084 134.492 25.692C133.54 25.2813 132.728 24.7307 132.056 24.04C131.384 23.3307 130.861 22.528 130.488 21.632C130.133 20.7173 129.956 19.756 129.956 18.748C129.956 17.348 130.264 16.0693 130.88 14.912C131.515 13.7547 132.411 12.8307 133.568 12.14C134.744 11.4307 136.125 11.076 137.712 11.076C139.317 11.076 140.689 11.4307 141.828 12.14C142.967 12.8307 143.835 13.7547 144.432 14.912C145.048 16.0507 145.356 17.2827 145.356 18.608C145.356 18.832 145.347 19.0653 145.328 19.308C145.309 19.532 145.291 19.7187 145.272 19.868H133.932C134.007 20.6147 134.221 21.268 134.576 21.828C134.949 22.388 135.416 22.8173 135.976 23.116C136.555 23.396 137.171 23.536 137.824 23.536C138.571 23.536 139.271 23.3587 139.924 23.004C140.596 22.6307 141.053 22.1453 141.296 21.548L144.516 22.444C144.161 23.1907 143.648 23.8533 142.976 24.432C142.323 25.0107 141.548 25.468 140.652 25.804C139.756 26.1213 138.767 26.28 137.684 26.28ZM133.848 17.488H141.52C141.445 16.7413 141.231 16.0973 140.876 15.556C140.54 14.996 140.092 14.5667 139.532 14.268C138.972 13.9507 138.347 13.792 137.656 13.792C136.984 13.792 136.368 13.9507 135.808 14.268C135.267 14.5667 134.819 14.996 134.464 15.556C134.128 16.0973 133.923 16.7413 133.848 17.488ZM159.772 26.28C158.521 26.28 157.327 26.0747 156.188 25.664C155.049 25.2533 154.069 24.6467 153.248 23.844L154.592 21.408C155.469 22.1173 156.328 22.64 157.168 22.976C158.027 23.312 158.848 23.48 159.632 23.48C160.36 23.48 160.939 23.3493 161.368 23.088C161.816 22.8267 162.04 22.4347 162.04 21.912C162.04 21.5573 161.919 21.2867 161.676 21.1C161.433 20.8947 161.079 20.7173 160.612 20.568C160.164 20.4187 159.613 20.2507 158.96 20.064C157.877 19.7093 156.972 19.364 156.244 19.028C155.516 18.692 154.965 18.272 154.592 17.768C154.237 17.2453 154.06 16.5827 154.06 15.78C154.06 14.8093 154.303 13.9787 154.788 13.288C155.292 12.5787 155.983 12.028 156.86 11.636C157.756 11.244 158.801 11.048 159.996 11.048C161.041 11.048 162.031 11.216 162.964 11.552C163.897 11.8693 164.747 12.392 165.512 13.12L164 15.5C163.253 14.9213 162.544 14.5013 161.872 14.24C161.2 13.96 160.519 13.82 159.828 13.82C159.436 13.82 159.063 13.8667 158.708 13.96C158.372 14.0533 158.092 14.212 157.868 14.436C157.663 14.6413 157.56 14.94 157.56 15.332C157.56 15.6867 157.653 15.9667 157.84 16.172C158.045 16.3587 158.344 16.5267 158.736 16.676C159.147 16.8253 159.641 16.9933 160.22 17.18C161.396 17.516 162.385 17.8613 163.188 18.216C164.009 18.5707 164.625 19.0093 165.036 19.532C165.447 20.036 165.652 20.736 165.652 21.632C165.652 23.088 165.12 24.2267 164.056 25.048C162.992 25.8693 161.564 26.28 159.772 26.28ZM168.064 20.512V11.328H171.816V19.7C171.816 20.82 172.021 21.6693 172.432 22.248C172.843 22.808 173.449 23.088 174.252 23.088C174.737 23.088 175.213 22.9947 175.68 22.808C176.165 22.6027 176.604 22.304 176.996 21.912C177.407 21.52 177.752 21.0253 178.032 20.428V11.328H181.784V21.8C181.784 22.192 181.849 22.472 181.98 22.64C182.129 22.808 182.363 22.9107 182.68 22.948V26C182.307 26.056 181.989 26.0933 181.728 26.112C181.485 26.1493 181.261 26.168 181.056 26.168C180.384 26.168 179.833 26.0187 179.404 25.72C178.993 25.4027 178.751 24.9733 178.676 24.432L178.592 23.256C177.939 24.2453 177.099 25.0013 176.072 25.524C175.045 26.028 173.916 26.28 172.684 26.28C171.172 26.28 170.024 25.7947 169.24 24.824C168.456 23.8347 168.064 22.3973 168.064 20.512ZM192.345 26.28C191.15 26.28 190.077 26.084 189.125 25.692C188.173 25.2813 187.361 24.7213 186.689 24.012C186.017 23.284 185.494 22.4627 185.121 21.548C184.766 20.6333 184.589 19.672 184.589 18.664C184.589 17.2827 184.897 16.0227 185.513 14.884C186.147 13.7267 187.043 12.8027 188.201 12.112C189.358 11.4213 190.73 11.076 192.317 11.076C193.903 11.076 195.266 11.4213 196.405 12.112C197.543 12.8027 198.393 13.708 198.953 14.828L195.285 15.948C194.967 15.4067 194.547 14.996 194.025 14.716C193.502 14.4173 192.923 14.268 192.289 14.268C191.579 14.268 190.926 14.4547 190.329 14.828C189.75 15.1827 189.293 15.696 188.957 16.368C188.621 17.0213 188.453 17.7867 188.453 18.664C188.453 19.5227 188.621 20.288 188.957 20.96C189.311 21.6133 189.778 22.136 190.357 22.528C190.935 22.9013 191.579 23.088 192.289 23.088C192.737 23.088 193.157 23.0133 193.549 22.864C193.959 22.7147 194.323 22.5093 194.641 22.248C194.958 21.9867 195.191 21.688 195.341 21.352L199.009 22.472C198.673 23.2 198.178 23.8533 197.525 24.432C196.89 25.0107 196.134 25.468 195.257 25.804C194.398 26.1213 193.427 26.28 192.345 26.28ZM208.013 26.28C206.818 26.28 205.745 26.084 204.793 25.692C203.841 25.2813 203.029 24.7213 202.357 24.012C201.685 23.284 201.162 22.4627 200.789 21.548C200.434 20.6333 200.257 19.672 200.257 18.664C200.257 17.2827 200.565 16.0227 201.181 14.884C201.815 13.7267 202.711 12.8027 203.869 12.112C205.026 11.4213 206.398 11.076 207.985 11.076C209.571 11.076 210.934 11.4213 212.073 12.112C213.211 12.8027 214.061 13.708 214.621 14.828L210.953 15.948C210.635 15.4067 210.215 14.996 209.693 14.716C209.17 14.4173 208.591 14.268 207.957 14.268C207.247 14.268 206.594 14.4547 205.997 14.828C205.418 15.1827 204.961 15.696 204.625 16.368C204.289 17.0213 204.121 17.7867 204.121 18.664C204.121 19.5227 204.289 20.288 204.625 20.96C204.979 21.6133 205.446 22.136 206.025 22.528C206.603 22.9013 207.247 23.088 207.957 23.088C208.405 23.088 208.825 23.0133 209.217 22.864C209.627 22.7147 209.991 22.5093 210.309 22.248C210.626 21.9867 210.859 21.688 211.009 21.352L214.677 22.472C214.341 23.2 213.846 23.8533 213.193 24.432C212.558 25.0107 211.802 25.468 210.925 25.804C210.066 26.1213 209.095 26.28 208.013 26.28ZM223.653 26.28C222.477 26.28 221.413 26.084 220.461 25.692C219.509 25.2813 218.697 24.7307 218.025 24.04C217.353 23.3307 216.83 22.528 216.457 21.632C216.102 20.7173 215.925 19.756 215.925 18.748C215.925 17.348 216.233 16.0693 216.849 14.912C217.483 13.7547 218.379 12.8307 219.537 12.14C220.713 11.4307 222.094 11.076 223.681 11.076C225.286 11.076 226.658 11.4307 227.797 12.14C228.935 12.8307 229.803 13.7547 230.401 14.912C231.017 16.0507 231.325 17.2827 231.325 18.608C231.325 18.832 231.315 19.0653 231.297 19.308C231.278 19.532 231.259 19.7187 231.241 19.868H219.901C219.975 20.6147 220.19 21.268 220.545 21.828C220.918 22.388 221.385 22.8173 221.945 23.116C222.523 23.396 223.139 23.536 223.793 23.536C224.539 23.536 225.239 23.3587 225.893 23.004C226.565 22.6307 227.022 22.1453 227.265 21.548L230.485 22.444C230.13 23.1907 229.617 23.8533 228.945 24.432C228.291 25.0107 227.517 25.468 226.621 25.804C225.725 26.1213 224.735 26.28 223.653 26.28ZM219.817 17.488H227.489C227.414 16.7413 227.199 16.0973 226.845 15.556C226.509 14.996 226.061 14.5667 225.501 14.268C224.941 13.9507 224.315 13.792 223.625 13.792C222.953 13.792 222.337 13.9507 221.777 14.268C221.235 14.5667 220.787 14.996 220.433 15.556C220.097 16.0973 219.891 16.7413 219.817 17.488ZM239.014 26.28C237.764 26.28 236.569 26.0747 235.43 25.664C234.292 25.2533 233.312 24.6467 232.49 23.844L233.834 21.408C234.712 22.1173 235.57 22.64 236.41 22.976C237.269 23.312 238.09 23.48 238.874 23.48C239.602 23.48 240.181 23.3493 240.61 23.088C241.058 22.8267 241.282 22.4347 241.282 21.912C241.282 21.5573 241.161 21.2867 240.918 21.1C240.676 20.8947 240.321 20.7173 239.854 20.568C239.406 20.4187 238.856 20.2507 238.202 20.064C237.12 19.7093 236.214 19.364 235.486 19.028C234.758 18.692 234.208 18.272 233.834 17.768C233.48 17.2453 233.302 16.5827 233.302 15.78C233.302 14.8093 233.545 13.9787 234.03 13.288C234.534 12.5787 235.225 12.028 236.102 11.636C236.998 11.244 238.044 11.048 239.238 11.048C240.284 11.048 241.273 11.216 242.206 11.552C243.14 11.8693 243.989 12.392 244.754 13.12L243.242 15.5C242.496 14.9213 241.786 14.5013 241.114 14.24C240.442 13.96 239.761 13.82 239.07 13.82C238.678 13.82 238.305 13.8667 237.95 13.96C237.614 14.0533 237.334 14.212 237.11 14.436C236.905 14.6413 236.802 14.94 236.802 15.332C236.802 15.6867 236.896 15.9667 237.082 16.172C237.288 16.3587 237.586 16.5267 237.978 16.676C238.389 16.8253 238.884 16.9933 239.462 17.18C240.638 17.516 241.628 17.8613 242.43 18.216C243.252 18.5707 243.868 19.0093 244.278 19.532C244.689 20.036 244.894 20.736 244.894 21.632C244.894 23.088 244.362 24.2267 243.298 25.048C242.234 25.8693 240.806 26.28 239.014 26.28ZM252.85 26.28C251.6 26.28 250.405 26.0747 249.266 25.664C248.128 25.2533 247.148 24.6467 246.326 23.844L247.67 21.408C248.548 22.1173 249.406 22.64 250.246 22.976C251.105 23.312 251.926 23.48 252.71 23.48C253.438 23.48 254.017 23.3493 254.446 23.088C254.894 22.8267 255.118 22.4347 255.118 21.912C255.118 21.5573 254.997 21.2867 254.754 21.1C254.512 20.8947 254.157 20.7173 253.69 20.568C253.242 20.4187 252.692 20.2507 252.038 20.064C250.956 19.7093 250.05 19.364 249.322 19.028C248.594 18.692 248.044 18.272 247.67 17.768C247.316 17.2453 247.138 16.5827 247.138 15.78C247.138 14.8093 247.381 13.9787 247.866 13.288C248.37 12.5787 249.061 12.028 249.938 11.636C250.834 11.244 251.88 11.048 253.074 11.048C254.12 11.048 255.109 11.216 256.042 11.552C256.976 11.8693 257.825 12.392 258.59 13.12L257.078 15.5C256.332 14.9213 255.622 14.5013 254.95 14.24C254.278 13.96 253.597 13.82 252.906 13.82C252.514 13.82 252.141 13.8667 251.786 13.96C251.45 14.0533 251.17 14.212 250.946 14.436C250.741 14.6413 250.638 14.94 250.638 15.332C250.638 15.6867 250.732 15.9667 250.918 16.172C251.124 16.3587 251.422 16.5267 251.814 16.676C252.225 16.8253 252.72 16.9933 253.298 17.18C254.474 17.516 255.464 17.8613 256.266 18.216C257.088 18.5707 257.704 19.0093 258.114 19.532C258.525 20.036 258.73 20.736 258.73 21.632C258.73 23.088 258.198 24.2267 257.134 25.048C256.07 25.8693 254.642 26.28 252.85 26.28ZM262.01 18.524V5.924H265.762V18.524H262.01ZM262.01 26V21.772H265.762V26H262.01Z" fill="white"/>
</svg>
