<svg width="420" height="515" viewBox="0 0 420 515" fill="none" xmlns="http://www.w3.org/2000/svg">
<g clip-path="url(#clip0_297_128)">
<path d="M272.415 215.701C188.69 275.836 5.7161 329.137 5.7161 329.137L0.341516 240.668C0.341516 240.668 98.1341 218.86 183.823 168.061C269.511 117.262 329.025 7.47525 329.025 7.47525C329.025 7.47525 381.098 41.9055 378.836 91.2614C377.858 112.791 345.372 165.855 272.415 215.701Z" fill="#1ABC82"/>
<path d="M152.09 96.3696C151.303 96.5007 150.227 97.5476 149.402 102.52L142.076 103.044C140.047 101.261 138.019 99.4672 135.991 97.6357C135.701 99.3801 135.329 101.954 134.995 105.095C134.25 112.38 134.706 114.124 134.25 118.181C133.551 124.095 131.645 129.78 128.661 134.843C125.267 140.47 123.032 140.645 120.382 146.141C118.759 149.595 117.762 153.337 117.443 157.177C117.029 157.133 111.769 156.697 108.419 161.015C106.887 163.022 105.19 166.773 106.474 169.739C107.715 172.619 110.572 172.182 115.746 176.936C117.568 178.593 119.306 180.251 118.892 181.56C118.478 182.912 116.243 182.651 112.31 184.875C110.241 186.053 109.247 186.658 108.916 187.707C107.673 191.502 115.539 197.347 116.698 198.22C120.507 201.011 125.142 203.193 125.722 202.32C126.591 201.011 117.236 193.814 118.643 191.023C119.678 188.925 125.556 191.547 126.922 189.239C128.415 186.709 123.155 180.384 120.34 176.938C114.917 170.308 111.481 168.651 112.061 166.425C112.682 164.07 117.401 162.499 119.844 164.118C121.913 165.47 121.499 168.523 122.285 170.53C123.779 174.368 130.896 177.51 155.402 174.63C154.664 173.076 153.603 171.716 152.299 170.652C150.995 169.587 149.481 168.845 147.868 168.48C149.325 166 149.832 163.029 149.286 160.169C148.74 157.31 147.182 154.776 144.929 153.083C146.584 149.637 148.241 145.886 149.813 141.785C150.809 139.124 151.718 136.551 152.501 134.065C155.047 134.214 157.558 133.395 159.58 131.757C162.684 128.878 161.442 125.345 164.671 122.772C167.693 120.329 171.295 121.42 171.915 119.326C172.004 118.818 171.968 118.293 171.808 117.804C171.648 117.315 171.371 116.878 171.004 116.535C169.431 114.961 166.616 115.749 163.553 116.622C160.569 117.498 157.713 118.804 155.067 120.503C157.053 117.561 158.189 114.077 158.337 110.471C158.631 103.31 154.49 96.0203 152.09 96.3696Z" fill="#161616" stroke="#B2B2B2" stroke-width="1.04896"/>
<path d="M153.539 127.689C156.395 128.998 155.319 137.852 154.285 145.922C153.426 152.596 152.126 159.199 150.394 165.682C156.189 170.393 155.9 171.745 155.733 172.094C155.195 173.272 151.346 172.574 150.145 172.356C148.706 172.194 147.304 171.766 146.006 171.091C143.067 169.042 144.598 162.805 145.508 152.858C146.833 138.464 145.259 132.444 149.647 128.998C150.228 128.518 152.132 127.035 153.539 127.689Z" fill="#161616" stroke="#B2B2B2" stroke-width="1.04896"/>
<path d="M181.853 145.747C181.449 145.566 181.061 145.347 180.694 145.093C180.777 145.049 180.777 145.747 180.777 145.921C180.881 146.54 180.923 147.169 180.901 147.797C180.874 147.99 180.811 148.176 180.714 148.343C180.618 148.51 180.491 148.655 180.34 148.769C180.189 148.883 180.018 148.963 179.837 149.006C179.656 149.049 179.469 149.053 179.286 149.018C178.854 148.957 178.45 148.759 178.128 148.45C177.905 148.232 177.67 148.028 177.424 147.84C177.36 148.2 177.318 148.565 177.3 148.931C177.255 149.342 177.063 149.72 176.763 149.988C176.463 150.255 176.077 150.392 175.685 150.37C174.899 150.283 174.899 148.974 175.685 149.061C176.099 149.105 176.223 146.753 176.927 146.488C177.07 146.436 177.221 146.418 177.371 146.433C177.521 146.448 177.666 146.496 177.796 146.575C178.417 146.88 179.328 148.276 179.618 147.055C179.825 146.14 178.956 144.83 179.742 144.046C180.488 143.304 181.733 144.177 182.43 144.57C182.578 144.651 182.69 144.791 182.74 144.959C182.791 145.126 182.776 145.308 182.699 145.465C182.622 145.621 182.49 145.738 182.331 145.792C182.172 145.845 181.999 145.829 181.851 145.748L181.853 145.747Z" fill="white" stroke="#B2B2B2" stroke-width="1.04896"/>
<path d="M153.373 110.59C153.202 110.427 152.999 110.306 152.778 110.234C152.557 110.163 152.324 110.143 152.096 110.176C151.867 110.209 151.648 110.295 151.454 110.427C151.26 110.559 151.095 110.734 150.972 110.94C150.641 111.464 149.854 110.984 150.186 110.46C150.385 110.133 150.65 109.856 150.961 109.646C151.271 109.437 151.622 109.3 151.987 109.246C152.352 109.193 152.725 109.222 153.078 109.334C153.432 109.446 153.758 109.636 154.035 109.893C154.449 110.329 153.786 111.027 153.373 110.59V110.59Z" fill="white" stroke="#B2B2B2" stroke-width="1.04896"/>
<path d="M144.515 110.284C144.148 109.904 143.659 109.684 143.144 109.668C142.63 109.652 142.129 109.841 141.742 110.197C141.287 110.633 140.624 109.936 141.08 109.499C141.642 108.955 142.382 108.66 143.145 108.676C143.909 108.692 144.637 109.018 145.178 109.586C145.592 110.023 144.929 110.72 144.516 110.284H144.515Z" fill="white" stroke="#B2B2B2" stroke-width="1.04896"/>
<path d="M151.76 115.389C152.215 116.348 154.161 119.663 152.049 119.925C151.18 120.012 150.357 119.184 149.859 118.573C149.201 117.668 148.696 116.65 148.366 115.564C148.077 114.778 149.277 114.43 149.567 115.214C149.938 116.45 150.608 117.563 151.512 118.442C151.719 118.616 151.843 118.922 151.761 118.529C151.708 118.266 151.609 118.014 151.471 117.788C151.223 117.22 150.973 116.654 150.685 116.086C150.353 115.257 151.43 114.603 151.761 115.389H151.76Z" fill="#EC615B" stroke="#B2B2B2" stroke-width="1.04896"/>
<path d="M150.646 116.086C150.139 115.807 149.655 115.487 149.197 115.126C149.363 115.17 149.529 115.17 149.695 115.213C149.653 115.213 149.612 115.257 149.571 115.257C149.695 115.17 149.82 115.039 149.943 114.952C149.943 114.69 149.985 114.69 150.15 114.996C150.27 115.133 150.381 115.279 150.482 115.432C150.675 115.683 150.854 115.945 151.02 116.217C151.392 116.827 151.724 117.438 152.055 118.093C152.428 118.834 151.352 119.489 150.979 118.747C150.607 118.05 150.234 117.308 149.821 116.649C149.489 116.125 148.785 115.558 148.744 114.905C148.735 114.793 148.746 114.68 148.778 114.572C148.811 114.465 148.863 114.366 148.933 114.28C149.003 114.195 149.088 114.125 149.183 114.075C149.279 114.025 149.383 113.996 149.49 113.989C149.621 113.983 149.752 114.007 149.874 114.06C149.995 114.113 150.104 114.193 150.194 114.294C150.549 114.592 150.938 114.841 151.353 115.036C151.974 115.254 151.353 116.388 150.649 116.085L150.646 116.086Z" fill="#EC615B" stroke="#B2B2B2" stroke-width="1.04896"/>
<path d="M151.883 115.344C151.205 115.361 150.542 115.125 150.012 114.678C149.482 114.232 149.119 113.602 148.985 112.901C148.903 112.291 149.772 112.029 149.896 112.639C149.964 113.138 150.205 113.593 150.573 113.915C150.941 114.237 151.409 114.404 151.887 114.383C152.508 114.339 152.508 115.299 151.887 115.343L151.883 115.344Z" fill="white" stroke="#B2B2B2" stroke-width="1.04896"/>
<path d="M149.771 112.596C149.695 113.451 149.307 114.243 148.69 114.804C148.073 115.365 147.273 115.652 146.459 115.606C145.879 115.561 145.879 114.557 146.459 114.603C147.028 114.661 147.596 114.484 148.043 114.11C148.491 113.736 148.784 113.193 148.86 112.596C148.902 111.986 149.811 111.986 149.771 112.596Z" fill="white" stroke="#B2B2B2" stroke-width="1.04896"/>
<path d="M382.505 217.979C368.803 235.471 355.115 252.948 341.441 270.411L405.893 287.292C407.248 270.538 404.122 253.719 396.869 238.742C393.09 231.105 388.249 224.107 382.505 217.979Z" fill="#46A0F2" stroke="white" stroke-width="1.04896"/>
<path d="M337.426 273.944C359.116 279.702 380.821 285.445 402.539 291.174C401.831 301.954 397.838 312.204 391.156 320.4C373.274 304.915 355.364 289.429 337.426 273.944Z" fill="#EEFF88" stroke="#707070" stroke-width="1.04896"/>
<path d="M334.238 195.645C374.087 195.645 406.39 230.544 406.39 273.596C406.39 316.647 374.087 351.546 334.238 351.546C294.39 351.546 262.087 316.646 262.087 273.596C262.087 230.545 294.39 195.645 334.238 195.645Z" stroke="#FAFAFA" stroke-width="3.14688"/>
<path d="M335.152 271.937C335.206 271.902 335.267 271.879 335.329 271.869C335.392 271.859 335.456 271.862 335.518 271.878C335.579 271.894 335.637 271.923 335.688 271.963C335.739 272.003 335.782 272.054 335.814 272.111C335.856 271.937 335.856 271.762 335.897 271.587C335.855 271.674 335.731 271.631 335.69 271.587C335.613 271.563 335.534 271.556 335.455 271.565C335.376 271.574 335.299 271.599 335.23 271.64C335.16 271.681 335.099 271.736 335.05 271.801C335.001 271.867 334.965 271.943 334.944 272.023C334.906 272.185 334.928 272.356 335.005 272.501C335.082 272.647 335.208 272.756 335.358 272.808C335.6 272.897 335.861 272.911 336.11 272.849C336.36 272.787 336.587 272.652 336.766 272.459C336.853 272.36 336.921 272.244 336.965 272.117C337.008 271.99 337.027 271.855 337.019 271.72C337.011 271.585 336.977 271.454 336.92 271.333C336.862 271.213 336.781 271.106 336.683 271.019C336.378 270.684 335.961 270.487 335.52 270.471C335.08 270.455 334.65 270.62 334.324 270.932C334.258 270.989 334.204 271.058 334.165 271.137C334.125 271.216 334.101 271.302 334.094 271.391C334.087 271.48 334.096 271.569 334.123 271.654C334.149 271.739 334.191 271.817 334.247 271.884C334.302 271.952 334.37 272.006 334.446 272.045C334.522 272.085 334.605 272.107 334.689 272.112C334.774 272.117 334.858 272.103 334.938 272.073C335.017 272.043 335.09 271.996 335.152 271.935V271.937Z" fill="#161616"/>
<path d="M378.78 212.787C365.569 233.039 351.379 252.563 336.268 271.283C335.77 271.937 336.64 272.856 337.137 272.198C352.327 253.401 366.586 233.789 379.856 213.442C380.312 212.744 379.235 212.09 378.78 212.787Z" fill="#161616"/>
<path d="M335.645 272.766C358.991 277.172 382.172 282.377 405.188 288.382C405.345 288.421 405.51 288.394 405.649 288.308C405.788 288.221 405.889 288.081 405.932 287.918C405.975 287.754 405.956 287.579 405.879 287.43C405.802 287.28 405.673 287.168 405.52 287.117C382.505 281.14 359.323 275.935 335.976 271.501C335.19 271.37 334.859 272.635 335.645 272.766Z" fill="#161616"/>
<path d="M335.562 272.548C353.238 289.603 371.451 306.019 390.203 321.795C390.824 322.32 391.696 321.403 391.072 320.88C372.362 305.133 354.148 288.717 336.43 271.632C335.851 271.064 334.937 271.981 335.561 272.548H335.562Z" fill="#161616"/>
<path opacity="0.21" d="M334.279 195.82C335.811 203.017 336.845 213.269 333.079 223.737C324.51 247.641 299.632 248.819 290.194 268.318C285.061 278.917 283.78 296.452 300.005 326.986V342.383C294.468 339.133 289.36 335.129 284.813 330.474C265.481 310.544 262.501 284.498 261.88 274.596C261.922 267.442 262.875 244.193 279.142 223.429C282.825 218.718 295.907 202.579 318.177 197.387C323.464 196.179 328.871 195.652 334.279 195.82Z" fill="#6D6C6C"/>
<path d="M211.751 318.131C214.607 325.722 217.463 333.268 220.278 340.857C218.585 344.783 215.972 350.584 212.371 357.52C207.651 366.593 205.417 369.647 206.161 370.563C207.237 371.872 214.233 368.6 241.388 347.182C239.696 342.209 237.952 337.193 236.254 332.09C233.77 324.677 231.356 317.334 229.011 310.062C223.299 312.766 217.546 315.456 211.751 318.131Z" fill="#161616" stroke="#C4C4C4" stroke-width="1.04896"/>
<path d="M288.083 185.176C292.678 193.42 289.408 206.202 288.952 207.903C286.427 217.805 280.715 218.764 259.769 239.658C246.647 252.788 242.88 258.11 240.106 263.956C237.098 270.405 235.178 277.357 234.432 284.501C236.129 294.969 237.826 305.395 239.523 315.864C233.882 319.747 227.75 322.772 221.307 324.85C216.572 326.369 211.702 327.377 206.774 327.859C200.502 311.468 198.321 293.657 200.441 276.126C204 248.34 217.95 230.15 229.541 215.057C244.764 195.404 263.663 179.264 285.062 167.641C284.22 171.959 284.507 176.437 285.89 180.597C286.469 182.199 287.203 183.734 288.083 185.176Z" fill="#46A0F2"/>
<path opacity="0.2" d="M281.211 173.356C276.945 185.65 271.23 197.33 264.198 208.121C247.433 233.814 235.057 235.907 225.163 259.768C220.681 270.921 217.942 282.764 217.05 294.839C216.205 304.878 216.553 314.989 218.086 324.937C220.93 324.831 223.752 324.362 226.489 323.541C231.309 322.078 235.772 319.534 239.57 316.082C238.866 312.549 237.831 307.314 236.672 300.902C235.1 292.004 234.313 287.511 234.313 284.329C234.313 274.95 238.08 267.884 241.143 262.256C242.592 259.595 246.817 252.224 261.592 237.959C277.198 222.91 283.697 220.293 287.795 209.256C289.433 204.961 290.235 200.363 290.154 195.734C289.78 184.265 283.653 176.235 281.211 173.356Z" fill="#6D6C6C"/>
<path d="M257.327 317.171L276.203 332.486C267.842 354.82 267.842 360.621 269.534 361.624C272.349 363.326 281.579 352.813 286.837 345.093C290.577 339.55 293.598 333.506 295.819 327.121C293.253 323.675 290.314 320.093 287.044 316.434C282.906 311.802 278.527 307.417 273.926 303.3C268.421 307.968 262.873 312.548 257.327 317.171Z" fill="#161616" stroke="#D3D3D3" stroke-width="1.04896"/>
<path d="M321.901 185.176C325.584 195.47 323.35 205.421 322.77 207.901C318.547 226.397 302.861 241.663 297.312 246.986C287.833 256.146 279.968 260.727 275.58 272.94C274.35 276.289 273.542 279.795 273.179 283.366C276.201 290.65 279.223 297.92 282.245 305.176C278.927 312.858 273.708 319.458 267.136 324.281C263.934 326.584 260.452 328.419 256.783 329.736C250.491 322.974 233.436 302.91 234.347 276.083C235.051 255.494 246.103 238.918 254.63 226.047C263.199 213.18 265.393 214.75 276.197 198.304C285.554 184.039 287.332 177.541 295.197 174.662C303.104 171.739 314.694 173.353 319.784 180.594C320.67 182.021 321.381 183.56 321.901 185.176Z" fill="#46A0F2"/>
<path opacity="0.24" d="M302.654 183.213C303.372 189.514 302.993 195.899 301.536 202.057C294.913 229.058 270.656 231.413 258.982 260.639C256.706 266.354 251.407 280.181 255.588 296.189C258.817 308.665 266.351 316.778 270.619 320.705C273.255 319.235 275.568 317.198 277.408 314.725C279.602 311.759 281.066 308.268 281.671 304.562C278.732 297.103 275.793 289.601 272.896 282.142C273.628 277.535 275.068 273.086 277.159 268.968C280.719 261.901 285.023 258.324 290.571 253.047C300.754 243.407 307.253 237.299 312.882 228.881C316.442 223.515 321.616 215.62 323.314 204.06C324.382 196.685 323.916 189.154 321.948 181.988C315.528 182.428 309.07 182.821 302.654 183.213Z" fill="#448FD3"/>
<path opacity="0.25" d="M323.723 197.215C318.788 206.77 312.89 215.735 306.129 223.955C289.406 244.238 278.064 248.469 270.281 264.086C266.929 270.799 263.865 281.882 267.633 299.68C272.393 301.687 277.195 303.693 281.955 305.743C278.933 298.24 275.952 290.782 272.931 283.279C273.294 278.073 274.69 273.005 277.03 268.404C279.638 263.344 282.535 260.684 288.91 254.577C299.462 244.456 304.764 239.397 306.917 236.867C311.843 231.153 317.224 224.741 320.619 214.839C322.589 209.191 323.638 203.232 323.723 197.215V197.215Z" fill="#4486C3"/>
<path d="M222.969 124.369C221.424 120.64 219.17 117.284 216.345 114.509C211.875 110.19 205.625 107.094 204.631 108.359C204.217 108.883 204.259 110.715 211.792 119.478" fill="white"/>
<path d="M222.969 124.369C221.424 120.64 219.17 117.284 216.345 114.509C211.875 110.19 205.625 107.094 204.631 108.359C204.217 108.883 204.259 110.715 211.792 119.478" stroke="#161616" stroke-width="2.09792" stroke-miterlimit="10"/>
<path d="M207.363 117.215C204.712 118.874 202.615 121.358 201.36 124.325C200.505 126.054 200.228 128.036 200.574 129.952C201.526 133.79 205.913 135.406 206.287 135.578C208.067 136.233 208.522 135.753 209.806 136.538C211.875 137.803 211.796 139.505 213.324 141.075C216.47 144.26 222.845 142.995 223.136 141.643C223.301 140.901 221.48 140.203 221.642 138.851C221.725 138.023 222.511 137.673 223.05 137.15C225.948 134.359 223.174 126.201 222.678 124.849C222.052 123.048 221.247 121.323 220.277 119.701" fill="white"/>
<path d="M207.363 117.215C204.712 118.874 202.615 121.358 201.36 124.325C200.505 126.054 200.228 128.036 200.574 129.952C201.526 133.79 205.913 135.406 206.287 135.578C208.067 136.233 208.522 135.753 209.806 136.538C211.875 137.803 211.796 139.505 213.324 141.075C216.47 144.26 222.845 142.995 223.136 141.643C223.301 140.901 221.48 140.203 221.642 138.851C221.725 138.023 222.511 137.673 223.05 137.15C225.948 134.359 223.174 126.201 222.678 124.849C222.052 123.048 221.247 121.323 220.277 119.701" stroke="#161616" stroke-width="2.09792" stroke-miterlimit="10"/>
<path d="M199.87 129.385C200.314 130.713 201.013 131.93 201.925 132.959C202.837 133.988 203.942 134.807 205.169 135.364C207.735 136.455 209.639 135.015 209.681 132.137C209.672 131.969 209.603 131.812 209.487 131.697C209.372 131.582 209.219 131.518 209.06 131.518C208.901 131.518 208.748 131.582 208.633 131.697C208.517 131.812 208.448 131.969 208.439 132.137C208.397 135.493 205.253 134.274 203.679 132.922C202.488 131.905 201.586 130.562 201.071 129.041C200.781 128.255 199.577 128.562 199.87 129.39V129.385Z" fill="#161616"/>
<path d="M202.975 125.808C204.216 128.251 205.873 130.956 208.439 131.958C210.757 132.874 212.122 131.391 212.371 129.079C212.453 128.25 211.212 128.25 211.129 129.079C210.757 132.525 207.57 130.128 206.451 128.905C205.483 127.783 204.675 126.519 204.05 125.154C203.678 124.412 202.601 125.067 202.974 125.808H202.975Z" fill="#161616"/>
<path d="M206.701 119.921C207.393 121.699 208.238 123.408 209.226 125.024C209.93 126.115 210.923 127.685 212.289 127.946C215.518 128.601 214.479 123.759 213.862 122.101C213.572 121.317 212.369 121.665 212.661 122.451C212.951 123.192 213.572 124.719 213.323 125.547C212.62 127.946 210.715 124.98 210.301 124.369C209.313 122.753 208.468 121.045 207.776 119.266C207.444 118.48 206.368 119.135 206.7 119.921H206.701Z" fill="#161616"/>
<path d="M207.321 117.957C208.563 117.302 210.094 118.481 210.963 119.353C211.795 120.252 212.443 121.321 212.868 122.494C213.157 123.278 214.361 122.93 214.068 122.144C213.033 119.44 209.97 115.116 206.702 116.823C205.998 117.172 206.619 118.306 207.323 117.957H207.321Z" fill="#161616"/>
<path d="M297.107 104.566C298.431 108.71 296.403 112.243 290.736 122.886C281.215 140.596 280.635 142.166 278.441 144.958C273.265 151.502 270.327 155.209 264.903 157.609C255.009 161.971 244.04 158.133 238.038 155.733C233.583 153.92 229.4 151.437 225.62 148.361C223.798 146.788 222.391 145.57 221.481 144.828C219.577 143.214 218.708 142.52 217.962 141.12C217.487 140.215 217.178 139.223 217.051 138.198C216.43 133.53 220.818 129.605 221.15 129.299C215.893 130.608 214.071 130.348 213.74 129.562C212.953 127.817 218.666 121.405 222.681 122.848C224.585 123.503 225.536 125.771 226.24 127.428C227.239 129.795 227.598 132.406 227.275 134.974C230.558 137.357 234.176 139.182 237.996 140.383C244.748 142.424 251.897 142.515 258.694 140.645C260.805 137.068 264.24 131.223 268.421 123.938C279.846 103.96 282.868 97.6354 288.125 97.5473C292.056 97.499 295.947 100.945 297.107 104.566Z" fill="white" stroke="#161616" stroke-width="2.09792" stroke-miterlimit="10"/>
<path d="M220.774 130.433C217.215 130.259 216.718 135.101 216.262 137.848C216.676 137.892 217.09 137.979 217.462 138.023C217.608 136.353 218.149 134.748 219.035 133.355C219.118 133.204 219.14 133.026 219.097 132.858C219.055 132.69 218.95 132.547 218.808 132.46C218.665 132.374 218.495 132.35 218.336 132.395C218.177 132.44 218.042 132.55 217.959 132.7C216.345 135.448 215.351 138.85 217.587 141.555L218.456 140.64C218.15 140.364 217.904 140.023 217.732 139.64C217.561 139.256 217.468 138.839 217.46 138.415C217.046 138.459 216.632 138.546 216.26 138.589C216.461 139.283 216.724 139.954 217.046 140.596C217.419 141.337 218.496 140.683 218.122 139.941C217.818 139.414 217.594 138.84 217.46 138.24C217.295 137.542 216.177 137.672 216.26 138.414C216.329 139.603 216.816 140.723 217.626 141.554C218.205 142.165 219.033 141.249 218.495 140.639C216.673 138.414 217.833 135.578 219.074 133.354C218.702 133.135 218.37 132.917 217.998 132.699C216.995 134.286 216.396 136.119 216.259 138.02C216.217 138.762 217.377 138.936 217.459 138.195C217.791 136.188 218.081 131.651 220.771 131.738C221.558 131.782 221.558 130.473 220.771 130.43L220.774 130.433Z" fill="white"/>
<path opacity="0.21" d="M290.774 99.3304C287.114 109.659 282.599 119.628 277.279 129.121C270.491 141.289 266.927 147.398 260.804 150.625C248.22 157.211 228.806 152.762 222.266 140.156C220.617 136.88 219.777 133.22 219.823 129.512C217.788 130.363 215.535 130.441 213.452 129.73C208.153 127.506 207.656 119.175 204.841 119.262C202.979 119.349 201.612 123.057 201.115 124.409C200.362 126.063 200.102 127.918 200.37 129.73C201.032 132.827 204.137 135.27 208.028 136.056C209.571 136.818 210.962 137.884 212.126 139.196C213.492 140.77 213.865 141.988 215.311 142.729C216.43 143.25 217.675 143.387 218.871 143.121C221.725 145.561 224.725 147.804 227.854 149.835C236.381 155.331 246.689 161.961 258.362 159.695C262.541 158.819 266.493 157.006 269.949 154.38C273.716 151.719 277.772 147.706 285.472 133.093C289.577 125.29 293.266 117.251 296.521 109.014C296.859 108.098 297.015 107.117 296.98 106.134C296.944 105.152 296.718 104.187 296.314 103.3C295.782 102.201 294.995 101.261 294.026 100.567C293.058 99.8736 291.939 99.4482 290.774 99.3304V99.3304Z" fill="#6D6C6C"/>
<path opacity="0.22" d="M212.454 129.646C211.875 130.083 212.123 130.955 211.419 131.609C210.96 131.945 210.403 132.099 209.846 132.045C209.875 132.786 209.687 133.518 209.308 134.143C208.728 135.016 207.942 135.192 207.983 135.539C208.065 135.932 209.224 135.714 210.342 136.368C211.011 136.8 211.555 137.417 211.915 138.151C214.647 135.403 217.379 132.697 220.111 129.951C218.647 130.601 217.026 130.754 215.475 130.387C214.152 129.952 213.162 129.123 212.454 129.646Z" fill="#6D6C6C"/>
<path d="M296.775 96.0159C294.002 98.9383 292.553 102.254 289.738 108.884C286.084 116.896 283.707 125.488 282.702 134.315C281.377 147.226 284.482 150.154 281.998 159.746C280.467 165.563 277.739 170.954 274.009 175.536C279.221 181.059 285.544 185.277 292.512 187.88C303.319 191.732 315.042 191.64 325.793 187.619C329.476 177.15 333.12 166.68 336.804 156.255C336.846 147.399 337.176 139.853 337.508 134.008C338.336 120.05 339.698 109.358 340.571 102.864C341.566 95.2303 342.599 88.8179 343.386 84.1071C335.833 84.516 328.313 85.4191 320.867 86.8113C302.82 90.2959 298.556 94.1393 296.775 96.0159Z" fill="#EEFF88" stroke="#161616" stroke-width="2.09792" stroke-miterlimit="10"/>
<path opacity="0.19" d="M318.715 87.1177C321.461 94.0084 323.084 101.338 323.517 108.798C324.8 131.306 314.493 148.929 306.669 162.277C301.701 170.738 295.931 178.645 289.448 185.878C293.621 188.186 298.123 189.762 302.777 190.546C310.446 191.81 318.295 190.938 325.544 188.016C329.021 177.461 332.458 166.948 335.935 156.391C336.142 149.194 336.514 141.735 337.053 134.145C338.294 116.435 340.323 99.8154 342.806 84.3737L318.715 87.1177Z" fill="#6D6C6C"/>
<path opacity="0.11" d="M326.121 85.7645C330.186 96.6206 332.02 108.262 331.502 119.92C329.511 159.483 299.793 183.431 294.661 187.445C298.714 188.973 302.949 189.898 307.245 190.193C313.279 190.596 319.328 189.736 325.045 187.663C328.853 177.107 332.702 166.594 336.511 156.038C336.511 146.398 336.842 136.107 337.629 125.198C338.624 111.578 340.298 98.0217 342.645 84.5865L326.121 85.7645Z" fill="#6D6C6C"/>
<path d="M341.854 83.5406C346.545 85.2394 350.66 88.3481 353.693 92.483C357.667 98.1978 358.536 105.089 356.259 126.943C354.148 147.27 352.327 151.633 351.624 163.847C351.002 174.358 351.516 184.909 353.156 195.297L367.313 191.764C370.991 192.726 374.362 194.698 377.082 197.479C378.614 199.052 381.842 202.364 380.931 205.069C380.352 206.814 378.244 207.691 377.33 208.036C375.767 208.631 374.09 208.811 372.445 208.56C369.01 208.342 365.577 208.211 362.139 208.036C359.657 207.902 357.17 207.902 354.688 208.036C358.869 211.831 360.648 214.274 360.111 215.364C359.366 216.803 354.398 215.8 345.167 212.397C344.753 208.864 344.091 203.499 343.098 196.955C340.532 179.857 338.668 173.749 337.424 164.676C336.141 155.297 336.555 146.835 337.424 129.955C338.088 118.001 339.288 102.212 341.854 83.5406Z" fill="white" stroke="#161616" stroke-width="2.09792" stroke-miterlimit="10"/>
<path d="M361.061 202.23C364.247 200.834 367.561 201.619 370.624 203.058C373.279 204.148 375.721 205.745 377.827 207.769C378.406 208.337 379.275 207.42 378.696 206.854C376.274 204.54 373.448 202.747 370.375 201.575C367.27 200.223 363.917 199.613 360.688 201.008C360.026 201.269 360.357 202.534 361.06 202.229L361.061 202.23Z" fill="#161616"/>
<path d="M365.12 198.218C370.626 197.084 377.165 200.526 380.188 205.456C380.643 206.154 381.72 205.5 381.264 204.802C377.869 199.347 370.911 195.728 364.788 196.993C364.002 197.124 364.333 198.389 365.12 198.214V198.218Z" fill="#161616"/>
<path d="M369.879 195.209C372.014 195.43 374.07 196.177 375.882 197.39C376.585 197.782 377.206 196.648 376.503 196.256C374.496 194.945 372.23 194.139 369.88 193.9C369.094 193.856 369.094 195.165 369.88 195.208L369.879 195.209Z" fill="#161616"/>
<path opacity="0.16" d="M342.434 84.5875C345.57 91.9991 347.756 99.8179 348.933 107.838C352.535 133.051 343.676 146.18 345.25 173.443C345.843 183.346 347.651 193.126 350.631 202.538C355.233 200.955 360.1 200.418 364.913 200.965C369.094 201.489 371.163 201.75 373.234 203.32C375.304 204.891 376.504 206.984 378.615 206.853C379.09 206.853 379.557 206.729 379.976 206.493C380.394 206.257 380.752 205.917 381.016 205.501C382.134 203.363 379.071 199.699 378.036 198.473C375.311 195.284 371.778 192.983 367.852 191.843L353.199 194.983C351.707 188.067 350.902 181.006 350.798 173.915C350.673 166.063 351.998 156.554 354.689 137.797C355.186 134.307 355.807 127.284 357.09 113.195C357.504 108.571 357.835 104.428 356.344 99.3233C355.599 96.7502 353.778 90.9044 348.397 87.2403C346.594 85.9505 344.568 85.049 342.434 84.5875V84.5875Z" fill="#6D6C6C"/>
<path opacity="0.22" d="M351.499 207.772C352.343 210.012 353.744 211.971 355.556 213.443C357.004 214.577 359.529 215.973 359.985 215.406C360.565 214.708 358.371 210.869 354.976 208.949C353.895 208.338 352.716 207.939 351.499 207.772V207.772Z" fill="#6D6C6C"/>
<path opacity="0.4" d="M356.136 120.487C350.56 136.465 348.165 153.481 349.099 170.476C349.657 180.005 351.268 189.433 353.901 198.568C352.209 191.808 351.21 184.876 350.921 177.892C350.423 164.849 352.659 157.521 354.977 133.573C355.556 128.033 355.929 123.454 356.136 120.487Z" fill="#6D6C6C"/>
<path opacity="0.22" d="M364.499 197.216C364.416 196.691 368.555 194.686 372.653 195.642C378.159 196.951 380.725 203.057 381.18 204.235C378.677 201.083 375.307 198.827 371.535 197.78C367.684 196.866 364.538 197.652 364.499 197.216Z" fill="#6D6C6C"/>
<path d="M281.542 74.598C279.803 76.2994 279.43 79.8764 278.727 86.8992C277.94 94.9689 277.609 99.0671 279.224 101.12C282.164 104.871 288.497 105.089 292.885 103.04C298.061 100.597 299.839 95.3192 300.295 94.0101C302.324 87.9471 301.661 78.7865 295.535 74.5991C291.391 71.7186 284.978 71.2392 281.542 74.598Z" fill="#212121"/>
<path d="M290.483 80.9665C291.104 84.107 294.416 84.3693 297.23 89.3854C298.873 92.4292 299.731 95.8731 299.719 99.3747C303.598 99.2941 307.418 98.351 310.928 96.6069C314.437 94.8629 317.558 92.3573 320.085 89.2543C319.05 87.4711 317.519 84.8487 315.697 81.7081C307.833 68.4041 306.674 67.3572 305.1 66.9177C298.72 65.3076 289.282 75.1216 290.483 80.9665Z" fill="white" stroke="#3B3B3B" stroke-width="2.09792" stroke-miterlimit="10"/>
<path opacity="0.74" d="M279.141 89.2101C279.215 90.3754 279.513 91.5127 280.017 92.5526C280.522 93.5925 281.222 94.5133 282.075 95.2588C282.928 96.0043 283.917 96.5589 284.98 96.8887C286.043 97.2186 287.159 97.3169 288.259 97.1775C289.36 97.0382 290.422 96.6641 291.38 96.0782C292.339 95.4923 293.175 94.7067 293.836 93.7695C294.497 92.8322 294.97 91.7629 295.227 90.6266C295.483 89.4903 295.517 88.311 295.327 87.1604C296.529 88.6198 297.481 90.2879 298.142 92.0905C298.687 93.5567 299.023 95.1002 299.137 96.6703C298.516 97.7612 295.288 103.174 289.243 104.217C288.208 104.391 282.33 105.307 279.557 101.594C278.486 99.8594 277.95 97.8175 278.025 95.7493C277.968 93.512 278.347 91.2862 279.141 89.2101V89.2101Z" fill="#161616"/>
<path d="M261.754 44.3253C259.85 48.0334 260.306 51.7844 261.216 59.1156C262.292 67.4024 263.704 74.3392 265.397 78.919C265.519 79.2539 265.745 79.5354 266.038 79.7175C266.331 79.8996 266.674 79.9716 267.011 79.9218C268.062 79.657 269.087 79.2919 270.074 78.8309C271.432 81.383 273.197 83.6701 275.29 85.5925C279.015 88.9296 283.597 91.025 288.454 91.6125C293.607 89.6108 297.997 85.8884 300.956 81.0127C302.685 78.0616 303.813 74.7637 304.267 71.3287C304.748 66.8019 303.972 62.2253 302.032 58.1548C303.313 57.3596 304.382 56.2337 305.137 54.8831C307.041 51.3502 306.958 45.5043 303.936 43.934C301.659 42.756 298.063 44.0651 295.616 47.4239C294.573 45.4949 293.293 43.72 291.808 42.1455C289.618 39.7813 287.037 37.8594 284.19 36.4748C276.74 33.3773 265.646 36.7791 261.754 44.3253Z" fill="white" stroke="#3B3B3B" stroke-width="2.09792" stroke-miterlimit="10"/>
<path d="M303.357 75.6892C301.567 79.9708 299.391 84.061 296.858 87.9033L297.853 87.7721C297.604 87.4669 297.355 87.1176 297.149 86.8123C297.101 87.0714 297.074 87.3342 297.067 87.598C298.111 86.6653 299.005 85.5608 299.715 84.3274C299.342 84.1092 299.011 83.891 298.639 83.6728C298.161 84.8746 297.254 85.8304 296.113 86.334L296.858 87.383C299.009 85.2389 300.963 82.8858 302.694 80.3549C303.149 79.6574 302.073 79.0028 301.618 79.7004C299.955 82.1423 298.07 84.407 295.989 86.462C295.45 86.9865 296.154 87.7711 296.734 87.511C298.065 86.8935 299.129 85.773 299.715 84.3703C299.797 84.22 299.819 84.0413 299.777 83.8736C299.734 83.7059 299.63 83.5629 299.487 83.4761C299.344 83.3893 299.175 83.3658 299.016 83.4108C298.857 83.4557 298.721 83.5654 298.639 83.7158C297.951 84.8255 297.129 85.837 296.196 86.7253C296.094 86.8236 296.03 86.9573 296.015 87.1018C295.999 87.2462 296.034 87.3916 296.113 87.511C296.356 87.9641 296.664 88.3757 297.024 88.7319C297.094 88.8006 297.177 88.8523 297.268 88.8833C297.359 88.9143 297.456 88.9239 297.551 88.9114C297.646 88.8989 297.737 88.8646 297.818 88.811C297.899 88.7573 297.968 88.6856 298.019 88.6008C300.562 84.7643 302.739 80.6731 304.521 76.3867C304.769 75.6021 303.692 74.9476 303.362 75.6892H303.357Z" fill="#161616"/>
<path d="M272.395 82.1884C275.25 81.4027 276.907 78.8737 278.355 76.3866C278.769 75.689 277.693 75.0345 277.279 75.7321C275.996 77.9128 274.547 80.2248 272.063 80.9664C271.277 81.1405 271.608 82.4055 272.395 82.1874V82.1884Z" fill="#161616"/>
<path d="M276.367 75.4699C276.757 75.4831 277.139 75.5834 277.489 75.7642C277.839 75.9451 278.148 76.2023 278.396 76.5189C278.935 77.1734 279.804 76.2136 279.265 75.6031C278.905 75.1627 278.461 74.807 277.962 74.5591C277.462 74.3112 276.919 74.1765 276.367 74.1639C275.539 74.1199 275.539 75.429 276.367 75.473V75.4699Z" fill="#161616"/>
<path d="M274.795 67.6185V67.4873C274.795 67.3137 274.729 67.1472 274.613 67.0245C274.496 66.9017 274.338 66.8328 274.174 66.8328C274.009 66.8328 273.851 66.9017 273.734 67.0245C273.618 67.1472 273.552 67.3137 273.552 67.4873V67.6185C273.557 67.7907 273.623 67.9547 273.739 68.0766C273.855 68.1984 274.01 68.2687 274.174 68.273C274.335 68.2615 274.486 68.1888 274.601 68.0684C274.715 67.9481 274.784 67.7883 274.795 67.6185V67.6185Z" fill="#161616"/>
<path d="M277.568 64.1297C277.725 64.1182 277.872 64.0443 277.98 63.9229C278.087 63.8015 278.147 63.6417 278.147 63.4757C278.147 63.3097 278.087 63.1498 277.98 63.0285C277.872 62.9071 277.725 62.8332 277.568 62.8217C277.411 62.8332 277.264 62.9071 277.156 63.0285C277.049 63.1498 276.989 63.3097 276.989 63.4757C276.989 63.6417 277.049 63.8015 277.156 63.9229C277.264 64.0443 277.411 64.1182 277.568 64.1297V64.1297Z" fill="#161616"/>
<path d="M277.196 67.4444C277.353 67.4329 277.5 67.359 277.607 67.2376C277.715 67.1162 277.775 66.9564 277.775 66.7904C277.775 66.6244 277.715 66.4645 277.607 66.3431C277.5 66.2218 277.353 66.1478 277.196 66.1364C277.038 66.1478 276.891 66.2218 276.784 66.3431C276.676 66.4645 276.616 66.6244 276.616 66.7904C276.616 66.9564 276.676 67.1162 276.784 67.2376C276.891 67.359 277.038 67.4329 277.196 67.4444Z" fill="#161616"/>
<path d="M261.466 57.0628C259.087 56.2683 257.049 54.6155 255.712 52.3949C253.187 47.8581 255.214 42.5798 256.21 40.0937C256.748 38.6976 258.239 35.2517 265.441 28.4912C270.905 23.2998 273.678 20.7288 276.783 19.2876C287.877 14.1844 299.219 19.0694 301.288 19.9851C304.351 21.2942 306.587 22.9075 311.016 26.0481C316.397 29.8863 319.832 32.3734 322.523 36.6479C325.793 41.8822 323.806 43.2343 326.621 49.1232C331.092 58.4589 337.26 57.3239 340.944 65.9611C341.565 67.4003 345 75.4269 341.109 82.4497C337.923 88.1645 331.422 90.212 326.62 90.083C317.886 89.8208 312.339 82.0564 309.193 77.6077C305.142 71.8347 302.627 65.0269 301.908 57.8872C305.923 55.3572 307.289 50.8204 305.881 47.942C304.846 45.8924 301.99 43.8417 299.465 44.9756C298.565 45.4557 297.818 46.2034 297.318 47.1262C296.818 48.049 296.585 49.1062 296.65 50.1669C293.001 50.8321 289.248 50.3269 285.875 48.7169C282.503 47.1068 279.667 44.4662 277.736 41.1374C274.137 42.6058 270.836 44.7818 268.009 47.5497C265.275 50.2545 263.054 53.4829 261.466 57.0628V57.0628Z" fill="#212121" stroke="#707070" stroke-width="1.04896"/>
<path opacity="0.24" d="M288.455 59.5927C291.652 62.7781 294.214 66.6044 295.989 70.847C298.126 76.0944 298.967 81.8273 298.431 87.5098C299.925 84.8486 301.37 82.1884 302.86 79.4842C305.261 85.1549 307.62 90.8256 310.021 96.4522C312.339 95.9045 314.489 94.7501 316.272 93.0955C317.7 91.765 318.842 90.1294 319.624 88.2975C313.304 83.5632 308.36 77.0687 305.344 69.5411C303.896 65.8762 302.948 62.0137 302.529 58.0686C306.088 55.4074 307.413 51.1329 306.088 48.0793C305.26 46.1167 302.859 43.6296 300.168 44.4153C298.988 44.8214 297.987 45.6627 297.348 46.7847C296.709 47.9066 296.476 49.2338 296.691 50.5224C293.07 51.0065 289.393 50.4227 286.068 48.8358C282.743 47.2489 279.901 44.7212 277.858 41.5338C278.976 49.2542 281.791 53.4427 284.15 55.8416C285.64 57.4549 286.261 57.455 288.455 59.5927Z" fill="#6D6C6C"/>
<path opacity="0.24" d="M302.529 61.6866C302.24 61.6866 302.405 66.1794 301.991 70.3238C301.55 74.6136 300.445 78.7984 298.721 82.712C300.679 81.3872 302.314 79.5954 303.493 77.4816C304.673 75.3678 305.363 72.9913 305.51 70.5441C305.005 69.7245 304.562 68.8641 304.185 67.971C302.737 64.4779 302.777 61.6866 302.529 61.6866Z" fill="#6D6C6C"/>
<path opacity="0.19" d="M303.978 76.8261C305.307 78.2806 306.717 79.6499 308.201 80.9265C313.706 85.7685 319.051 88.5168 319.211 88.2115C319.371 87.9063 314.161 85.6814 310.188 79.6614C307.699 75.9104 306.255 71.4607 305.634 71.6789C305.345 71.7659 305.593 72.8128 305.096 74.511C304.819 75.3298 304.443 76.1078 303.978 76.8261Z" fill="#6D6C6C"/>
<path opacity="0.74" d="M308.573 24.4346C312.557 31.682 316.137 39.1682 319.294 46.8551C325.876 63.0385 325.337 67.4871 324.426 70.3665C322.398 76.8701 316.768 80.5299 313.415 82.2754C315.935 86.0433 319.697 88.6869 323.966 89.6905C325.167 89.9517 332.411 91.3919 337.917 86.1135C340.685 83.3952 342.409 79.6992 342.759 75.7288C343.505 68.4007 339.365 62.9042 338.04 61.3339C336.301 59.2842 335.929 59.7604 331.868 55.6191C328.723 52.4345 327.19 50.8212 326.28 48.8145C324.832 45.5428 325.782 44.1467 324.09 40.0033C323.352 38.2378 322.421 36.5689 321.317 35.0301C317.307 29.3196 311.513 25.9608 308.573 24.4346Z" fill="#161616"/>
<path d="M271.358 62.038C271.772 62.9107 271.772 64.1757 271.234 64.4369C270.695 64.7422 269.661 63.9124 269.289 62.9537C268.999 62.125 269.082 60.947 269.62 60.7288C270.2 60.5086 271.027 61.2943 271.358 62.038Z" fill="#161616"/>
<path d="M267.964 61.0318C269.42 60.5064 270.915 60.1123 272.435 59.8538C273.014 59.7668 272.766 58.8049 272.187 58.894C270.668 59.1525 269.172 59.5466 267.716 60.072C267.656 60.0892 267.6 60.1185 267.551 60.1585C267.502 60.1985 267.461 60.2482 267.43 60.3049C267.4 60.3616 267.38 60.4241 267.372 60.4889C267.364 60.5537 267.368 60.6195 267.385 60.6825C267.401 60.7455 267.429 60.8045 267.467 60.8562C267.505 60.9079 267.552 60.9511 267.606 60.9836C267.66 61.016 267.719 61.037 267.78 61.0453C267.842 61.0535 267.904 61.049 267.964 61.0318Z" fill="#161616"/>
<path d="M114.064 475.787V454.963H118.117V464.861L126.869 454.934H131.334L123.345 464.186L131.833 475.787H127.251L120.76 466.8L118.117 469.561V475.787H114.064ZM139.434 476.081C138.2 476.081 137.084 475.875 136.086 475.464C135.087 475.033 134.235 474.456 133.53 473.731C132.826 472.987 132.277 472.145 131.886 471.205C131.514 470.246 131.328 469.238 131.328 468.18C131.328 466.712 131.651 465.37 132.297 464.156C132.963 462.942 133.902 461.973 135.116 461.249C136.35 460.505 137.799 460.133 139.463 460.133C141.147 460.133 142.586 460.505 143.781 461.249C144.975 461.973 145.886 462.942 146.512 464.156C147.159 465.351 147.482 466.643 147.482 468.033C147.482 468.268 147.472 468.513 147.452 468.768C147.433 469.003 147.413 469.198 147.393 469.355H135.498C135.577 470.138 135.802 470.824 136.174 471.411C136.565 471.998 137.055 472.449 137.642 472.762C138.249 473.056 138.896 473.203 139.581 473.203C140.364 473.203 141.098 473.017 141.784 472.645C142.489 472.253 142.968 471.744 143.223 471.117L146.6 472.057C146.228 472.84 145.69 473.535 144.985 474.142C144.3 474.749 143.487 475.229 142.547 475.582C141.607 475.915 140.57 476.081 139.434 476.081ZM135.41 466.858H143.458C143.379 466.075 143.154 465.4 142.782 464.832C142.43 464.244 141.96 463.794 141.372 463.481C140.785 463.148 140.129 462.982 139.405 462.982C138.7 462.982 138.054 463.148 137.466 463.481C136.898 463.794 136.428 464.244 136.056 464.832C135.704 465.4 135.488 466.075 135.41 466.858ZM157.016 476.081C155.783 476.081 154.667 475.875 153.668 475.464C152.669 475.033 151.818 474.456 151.113 473.731C150.408 472.987 149.86 472.145 149.468 471.205C149.096 470.246 148.91 469.238 148.91 468.18C148.91 466.712 149.233 465.37 149.879 464.156C150.545 462.942 151.485 461.973 152.699 461.249C153.932 460.505 155.381 460.133 157.046 460.133C158.73 460.133 160.169 460.505 161.363 461.249C162.558 461.973 163.468 462.942 164.095 464.156C164.741 465.351 165.064 466.643 165.064 468.033C165.064 468.268 165.054 468.513 165.035 468.768C165.015 469.003 164.995 469.198 164.976 469.355H153.081C153.159 470.138 153.384 470.824 153.756 471.411C154.148 471.998 154.637 472.449 155.225 472.762C155.832 473.056 156.478 473.203 157.163 473.203C157.946 473.203 158.681 473.017 159.366 472.645C160.071 472.253 160.551 471.744 160.805 471.117L164.183 472.057C163.811 472.84 163.272 473.535 162.567 474.142C161.882 474.749 161.07 475.229 160.13 475.582C159.19 475.915 158.152 476.081 157.016 476.081ZM152.993 466.858H161.04C160.962 466.075 160.737 465.4 160.365 464.832C160.012 464.244 159.542 463.794 158.955 463.481C158.367 463.148 157.711 462.982 156.987 462.982C156.282 462.982 155.636 463.148 155.049 463.481C154.481 463.794 154.011 464.244 153.639 464.832C153.286 465.4 153.071 466.075 152.993 466.858ZM176.684 476.081C175.49 476.081 174.432 475.817 173.512 475.288C172.611 474.74 171.906 474.005 171.397 473.085V482.043H167.462V460.397H170.898V463.04C171.485 462.14 172.23 461.435 173.13 460.926C174.031 460.397 175.059 460.133 176.214 460.133C177.252 460.133 178.202 460.338 179.063 460.749C179.944 461.161 180.708 461.738 181.354 462.482C182 463.207 182.5 464.049 182.852 465.008C183.224 465.948 183.41 466.966 183.41 468.063C183.41 469.551 183.116 470.902 182.529 472.116C181.961 473.33 181.168 474.299 180.15 475.024C179.151 475.728 177.996 476.081 176.684 476.081ZM175.362 472.733C175.969 472.733 176.518 472.605 177.007 472.351C177.497 472.096 177.918 471.754 178.27 471.323C178.642 470.872 178.916 470.373 179.093 469.825C179.288 469.257 179.386 468.67 179.386 468.063C179.386 467.417 179.279 466.819 179.063 466.271C178.867 465.723 178.574 465.243 178.182 464.832C177.79 464.401 177.33 464.068 176.802 463.833C176.292 463.598 175.734 463.481 175.127 463.481C174.755 463.481 174.374 463.549 173.982 463.686C173.61 463.804 173.248 463.98 172.895 464.215C172.543 464.45 172.23 464.724 171.955 465.037C171.701 465.351 171.515 465.693 171.397 466.065V469.678C171.632 470.246 171.946 470.765 172.337 471.235C172.748 471.705 173.218 472.077 173.747 472.351C174.276 472.605 174.814 472.733 175.362 472.733ZM192.652 478.783C193.005 478.861 193.328 478.93 193.622 478.989C193.935 479.047 194.199 479.077 194.415 479.077C194.787 479.077 195.09 478.979 195.325 478.783C195.58 478.607 195.825 478.274 196.059 477.784C196.294 477.315 196.539 476.649 196.794 475.787L190.714 460.397H194.797L198.938 471.763L202.58 460.397H206.339L199.878 478.842C199.643 479.527 199.281 480.144 198.791 480.692C198.321 481.26 197.724 481.701 196.999 482.014C196.294 482.347 195.501 482.513 194.62 482.513C194.307 482.513 193.994 482.484 193.68 482.425C193.367 482.386 193.025 482.308 192.652 482.19V478.783ZM215.069 476.081C213.816 476.081 212.69 475.875 211.691 475.464C210.693 475.033 209.841 474.446 209.136 473.702C208.451 472.958 207.922 472.106 207.55 471.147C207.178 470.187 206.992 469.179 206.992 468.121C206.992 467.044 207.178 466.026 207.55 465.067C207.922 464.107 208.451 463.256 209.136 462.512C209.841 461.768 210.693 461.19 211.691 460.779C212.69 460.348 213.816 460.133 215.069 460.133C216.322 460.133 217.438 460.348 218.417 460.779C219.416 461.19 220.268 461.768 220.973 462.512C221.678 463.256 222.206 464.107 222.559 465.067C222.931 466.026 223.117 467.044 223.117 468.121C223.117 469.179 222.931 470.187 222.559 471.147C222.206 472.106 221.678 472.958 220.973 473.702C220.287 474.446 219.445 475.033 218.447 475.464C217.448 475.875 216.322 476.081 215.069 476.081ZM211.045 468.121C211.045 469.022 211.222 469.825 211.574 470.53C211.926 471.215 212.406 471.754 213.013 472.145C213.62 472.537 214.305 472.733 215.069 472.733C215.813 472.733 216.489 472.537 217.096 472.145C217.703 471.734 218.182 471.186 218.535 470.5C218.907 469.796 219.093 468.993 219.093 468.092C219.093 467.211 218.907 466.418 218.535 465.713C218.182 465.008 217.703 464.46 217.096 464.068C216.489 463.677 215.813 463.481 215.069 463.481C214.305 463.481 213.62 463.686 213.013 464.098C212.406 464.489 211.926 465.037 211.574 465.742C211.222 466.428 211.045 467.221 211.045 468.121ZM225.626 470.031V460.397H229.562V469.179C229.562 470.354 229.777 471.245 230.208 471.852C230.639 472.439 231.275 472.733 232.117 472.733C232.626 472.733 233.126 472.635 233.615 472.439C234.124 472.224 234.584 471.91 234.996 471.499C235.426 471.088 235.789 470.569 236.082 469.942V460.397H240.018V471.382C240.018 471.793 240.087 472.086 240.224 472.263C240.38 472.439 240.625 472.547 240.958 472.586V475.787C240.566 475.846 240.234 475.885 239.959 475.905C239.705 475.944 239.47 475.963 239.254 475.963C238.55 475.963 237.972 475.807 237.522 475.494C237.091 475.161 236.836 474.71 236.758 474.142L236.67 472.909C235.985 473.947 235.103 474.74 234.026 475.288C232.95 475.817 231.765 476.081 230.473 476.081C228.887 476.081 227.682 475.572 226.86 474.554C226.038 473.516 225.626 472.008 225.626 470.031ZM253.093 463.804C251.899 463.804 250.831 464.039 249.892 464.509C248.952 464.959 248.276 465.615 247.865 466.477V475.787H243.929V460.397H247.542V463.686C248.09 462.629 248.785 461.797 249.627 461.19C250.469 460.583 251.36 460.25 252.3 460.191C252.515 460.191 252.682 460.191 252.799 460.191C252.917 460.191 253.015 460.201 253.093 460.221V463.804ZM113.682 509.787V494.397H117.618V509.787H113.682ZM113.682 492.253V488.346H117.618V492.253H113.682ZM135.472 509.787H131.536V501.152C131.536 499.919 131.321 499.018 130.89 498.45C130.459 497.882 129.862 497.598 129.098 497.598C128.569 497.598 128.031 497.735 127.483 498.009C126.954 498.284 126.474 498.665 126.044 499.155C125.613 499.625 125.3 500.173 125.104 500.8V509.787H121.168V494.397H124.722V497.246C125.114 496.58 125.613 496.022 126.22 495.572C126.827 495.102 127.522 494.749 128.305 494.514C129.108 494.26 129.95 494.133 130.831 494.133C131.791 494.133 132.574 494.309 133.181 494.661C133.807 494.994 134.277 495.454 134.591 496.042C134.923 496.609 135.149 497.256 135.266 497.98C135.403 498.705 135.472 499.439 135.472 500.183V509.787ZM142.777 509.787L137.108 494.397H141.191L145.068 506.204L148.974 494.397H152.704L147.065 509.787H142.777ZM161.405 510.081C160.171 510.081 159.055 509.875 158.057 509.464C157.058 509.033 156.206 508.456 155.501 507.731C154.796 506.987 154.248 506.145 153.856 505.205C153.484 504.246 153.298 503.238 153.298 502.18C153.298 500.712 153.622 499.37 154.268 498.156C154.933 496.942 155.873 495.973 157.087 495.249C158.321 494.505 159.77 494.133 161.434 494.133C163.118 494.133 164.557 494.505 165.752 495.249C166.946 495.973 167.857 496.942 168.483 498.156C169.129 499.351 169.452 500.643 169.452 502.033C169.452 502.268 169.443 502.513 169.423 502.768C169.403 503.003 169.384 503.198 169.364 503.355H157.469C157.547 504.138 157.773 504.824 158.145 505.411C158.536 505.998 159.026 506.449 159.613 506.762C160.22 507.056 160.866 507.203 161.552 507.203C162.335 507.203 163.069 507.017 163.754 506.645C164.459 506.253 164.939 505.744 165.194 505.117L168.571 506.057C168.199 506.84 167.661 507.535 166.956 508.142C166.271 508.749 165.458 509.229 164.518 509.582C163.578 509.915 162.54 510.081 161.405 510.081ZM157.381 500.858H165.429C165.35 500.075 165.125 499.4 164.753 498.832C164.401 498.244 163.931 497.794 163.343 497.481C162.756 497.148 162.1 496.982 161.375 496.982C160.671 496.982 160.024 497.148 159.437 497.481C158.869 497.794 158.399 498.244 158.027 498.832C157.675 499.4 157.459 500.075 157.381 500.858ZM177.519 510.081C176.207 510.081 174.954 509.866 173.759 509.435C172.565 509.004 171.537 508.368 170.675 507.526L172.085 504.97C173.005 505.714 173.906 506.263 174.787 506.615C175.688 506.968 176.549 507.144 177.372 507.144C178.135 507.144 178.742 507.007 179.193 506.733C179.663 506.459 179.898 506.047 179.898 505.499C179.898 505.127 179.77 504.843 179.516 504.647C179.261 504.432 178.889 504.246 178.4 504.089C177.93 503.933 177.352 503.756 176.667 503.561C175.531 503.189 174.582 502.826 173.818 502.474C173.054 502.121 172.477 501.681 172.085 501.152C171.713 500.604 171.527 499.909 171.527 499.067C171.527 498.049 171.782 497.177 172.291 496.453C172.819 495.709 173.544 495.131 174.464 494.72C175.404 494.309 176.5 494.103 177.754 494.103C178.85 494.103 179.888 494.279 180.867 494.632C181.846 494.965 182.737 495.513 183.54 496.277L181.954 498.773C181.17 498.166 180.426 497.726 179.721 497.451C179.017 497.158 178.302 497.011 177.577 497.011C177.166 497.011 176.775 497.06 176.403 497.158C176.05 497.256 175.756 497.422 175.521 497.657C175.306 497.872 175.198 498.186 175.198 498.597C175.198 498.969 175.296 499.263 175.492 499.478C175.707 499.674 176.021 499.85 176.432 500.007C176.863 500.163 177.382 500.34 177.989 500.535C179.222 500.888 180.26 501.25 181.102 501.622C181.963 501.994 182.61 502.454 183.04 503.003C183.471 503.531 183.687 504.265 183.687 505.205C183.687 506.733 183.128 507.927 182.012 508.789C180.896 509.65 179.398 510.081 177.519 510.081ZM195.5 508.994C195.167 509.131 194.766 509.288 194.296 509.464C193.826 509.64 193.317 509.777 192.768 509.875C192.24 509.993 191.701 510.052 191.153 510.052C190.428 510.052 189.763 509.924 189.156 509.67C188.549 509.415 188.059 509.014 187.687 508.466C187.335 507.898 187.159 507.163 187.159 506.263V497.422H185.132V494.397H187.159V489.404H191.094V494.397H194.325V497.422H191.094V504.941C191.114 505.47 191.261 505.852 191.535 506.086C191.809 506.321 192.152 506.439 192.563 506.439C192.974 506.439 193.375 506.37 193.767 506.233C194.159 506.096 194.472 505.979 194.707 505.881L195.5 508.994ZM221.458 509.787H217.522V501.152C217.522 499.938 217.306 499.047 216.876 498.479C216.464 497.892 215.887 497.598 215.143 497.598C214.379 497.598 213.645 497.902 212.94 498.509C212.255 499.096 211.765 499.87 211.471 500.829V509.787H207.536V501.152C207.536 499.919 207.32 499.018 206.89 498.45C206.478 497.882 205.901 497.598 205.157 497.598C204.393 497.598 203.659 497.892 202.954 498.479C202.269 499.067 201.779 499.84 201.485 500.8V509.787H197.55V494.397H201.103V497.246C201.691 496.247 202.474 495.484 203.453 494.955C204.432 494.407 205.558 494.133 206.831 494.133C208.104 494.133 209.092 494.446 209.797 495.072C210.522 495.699 210.982 496.472 211.178 497.393C211.804 496.335 212.597 495.533 213.557 494.984C214.536 494.416 215.632 494.133 216.846 494.133C217.806 494.133 218.579 494.309 219.167 494.661C219.774 494.994 220.244 495.454 220.576 496.042C220.909 496.609 221.134 497.256 221.252 497.98C221.389 498.705 221.458 499.439 221.458 500.183V509.787ZM232.021 510.081C230.788 510.081 229.672 509.875 228.673 509.464C227.674 509.033 226.823 508.456 226.118 507.731C225.413 506.987 224.864 506.145 224.473 505.205C224.101 504.246 223.915 503.238 223.915 502.18C223.915 500.712 224.238 499.37 224.884 498.156C225.55 496.942 226.49 495.973 227.704 495.249C228.937 494.505 230.386 494.133 232.051 494.133C233.735 494.133 235.174 494.505 236.368 495.249C237.563 495.973 238.473 496.942 239.1 498.156C239.746 499.351 240.069 500.643 240.069 502.033C240.069 502.268 240.059 502.513 240.039 502.768C240.02 503.003 240 503.198 239.981 503.355H228.086C228.164 504.138 228.389 504.824 228.761 505.411C229.153 505.998 229.642 506.449 230.23 506.762C230.837 507.056 231.483 507.203 232.168 507.203C232.951 507.203 233.686 507.017 234.371 506.645C235.076 506.253 235.556 505.744 235.81 505.117L239.188 506.057C238.816 506.84 238.277 507.535 237.572 508.142C236.887 508.749 236.074 509.229 235.135 509.582C234.195 509.915 233.157 510.081 232.021 510.081ZM227.997 500.858H236.045C235.967 500.075 235.742 499.4 235.369 498.832C235.017 498.244 234.547 497.794 233.96 497.481C233.372 497.148 232.716 496.982 231.992 496.982C231.287 496.982 230.641 497.148 230.053 497.481C229.486 497.794 229.016 498.244 228.644 498.832C228.291 499.4 228.076 500.075 227.997 500.858ZM256.77 509.787H252.834V501.152C252.834 499.919 252.619 499.018 252.188 498.45C251.757 497.882 251.16 497.598 250.397 497.598C249.868 497.598 249.329 497.735 248.781 498.009C248.253 498.284 247.773 498.665 247.342 499.155C246.911 499.625 246.598 500.173 246.402 500.8V509.787H242.466V494.397H246.02V497.246C246.412 496.58 246.911 496.022 247.518 495.572C248.125 495.102 248.82 494.749 249.604 494.514C250.406 494.26 251.248 494.133 252.129 494.133C253.089 494.133 253.872 494.309 254.479 494.661C255.106 494.994 255.576 495.454 255.889 496.042C256.222 496.609 256.447 497.256 256.565 497.98C256.702 498.705 256.77 499.439 256.77 500.183V509.787ZM269.329 508.994C268.996 509.131 268.594 509.288 268.124 509.464C267.655 509.64 267.145 509.777 266.597 509.875C266.069 509.993 265.53 510.052 264.982 510.052C264.257 510.052 263.592 509.924 262.985 509.67C262.378 509.415 261.888 509.014 261.516 508.466C261.164 507.898 260.987 507.163 260.987 506.263V497.422H258.961V494.397H260.987V489.404H264.923V494.397H268.154V497.422H264.923V504.941C264.943 505.47 265.089 505.852 265.364 506.086C265.638 506.321 265.98 506.439 266.392 506.439C266.803 506.439 267.204 506.37 267.596 506.233C267.987 506.096 268.301 505.979 268.536 505.881L269.329 508.994ZM284.103 510.081C282.791 510.081 281.538 509.866 280.343 509.435C279.149 509.004 278.121 508.368 277.26 507.526L278.669 504.97C279.59 505.714 280.49 506.263 281.371 506.615C282.272 506.968 283.134 507.144 283.956 507.144C284.72 507.144 285.327 507.007 285.777 506.733C286.247 506.459 286.482 506.047 286.482 505.499C286.482 505.127 286.355 504.843 286.1 504.647C285.846 504.432 285.474 504.246 284.984 504.089C284.514 503.933 283.937 503.756 283.251 503.561C282.116 503.189 281.166 502.826 280.402 502.474C279.639 502.121 279.061 501.681 278.669 501.152C278.297 500.604 278.111 499.909 278.111 499.067C278.111 498.049 278.366 497.177 278.875 496.453C279.404 495.709 280.128 495.131 281.048 494.72C281.988 494.309 283.085 494.103 284.338 494.103C285.434 494.103 286.472 494.279 287.451 494.632C288.43 494.965 289.321 495.513 290.124 496.277L288.538 498.773C287.755 498.166 287.011 497.726 286.306 497.451C285.601 497.158 284.886 497.011 284.162 497.011C283.75 497.011 283.359 497.06 282.987 497.158C282.634 497.256 282.341 497.422 282.106 497.657C281.89 497.872 281.783 498.186 281.783 498.597C281.783 498.969 281.881 499.263 282.076 499.478C282.292 499.674 282.605 499.85 283.016 500.007C283.447 500.163 283.966 500.34 284.573 500.535C285.806 500.888 286.844 501.25 287.686 501.622C288.548 501.994 289.194 502.454 289.625 503.003C290.055 503.531 290.271 504.265 290.271 505.205C290.271 506.733 289.713 507.927 288.597 508.789C287.481 509.65 285.983 510.081 284.103 510.081ZM291.89 505.235C291.89 504.236 292.164 503.365 292.713 502.621C293.281 501.857 294.064 501.27 295.062 500.858C296.061 500.447 297.207 500.242 298.499 500.242C299.145 500.242 299.801 500.291 300.467 500.389C301.132 500.486 301.71 500.643 302.2 500.858V500.036C302.2 499.057 301.906 498.303 301.318 497.775C300.751 497.246 299.899 496.982 298.763 496.982C297.921 496.982 297.118 497.128 296.355 497.422C295.591 497.716 294.788 498.147 293.946 498.714L292.683 496.13C293.702 495.464 294.739 494.965 295.797 494.632C296.874 494.299 298 494.133 299.174 494.133C301.367 494.133 303.071 494.681 304.285 495.777C305.518 496.874 306.135 498.44 306.135 500.477V505.382C306.135 505.793 306.204 506.086 306.341 506.263C306.498 506.439 306.742 506.547 307.075 506.586V509.787C306.723 509.846 306.4 509.895 306.106 509.934C305.832 509.973 305.597 509.993 305.401 509.993C304.618 509.993 304.021 509.817 303.609 509.464C303.218 509.112 302.973 508.681 302.875 508.172L302.787 507.379C302.121 508.24 301.289 508.906 300.29 509.376C299.292 509.846 298.274 510.081 297.236 510.081C296.218 510.081 295.297 509.875 294.475 509.464C293.672 509.033 293.036 508.456 292.566 507.731C292.116 506.987 291.89 506.155 291.89 505.235ZM301.465 506.028C301.681 505.793 301.857 505.558 301.994 505.323C302.131 505.088 302.2 504.872 302.2 504.677V503.12C301.73 502.924 301.221 502.777 300.672 502.679C300.124 502.562 299.605 502.503 299.116 502.503C298.097 502.503 297.255 502.728 296.59 503.179C295.944 503.61 295.62 504.187 295.62 504.912C295.62 505.303 295.728 505.675 295.944 506.028C296.159 506.38 296.472 506.664 296.883 506.88C297.295 507.095 297.784 507.203 298.352 507.203C298.939 507.203 299.517 507.095 300.085 506.88C300.653 506.645 301.113 506.361 301.465 506.028ZM310.696 509.787V498.215H308.669V495.219H310.696V494.279C310.696 493.007 310.901 491.91 311.312 490.99C311.743 490.05 312.34 489.325 313.104 488.816C313.887 488.307 314.798 488.053 315.835 488.053C316.462 488.053 317.089 488.131 317.715 488.288C318.361 488.444 318.998 488.67 319.624 488.963L318.831 491.93C318.538 491.773 318.195 491.646 317.803 491.548C317.412 491.43 317.04 491.372 316.687 491.372C316.021 491.372 315.512 491.607 315.16 492.077C314.807 492.547 314.631 493.232 314.631 494.133V495.219H318.391V498.215H314.631V509.787H310.696ZM327.563 510.081C326.329 510.081 325.213 509.875 324.214 509.464C323.216 509.033 322.364 508.456 321.659 507.731C320.954 506.987 320.406 506.145 320.014 505.205C319.642 504.246 319.456 503.238 319.456 502.18C319.456 500.712 319.779 499.37 320.426 498.156C321.091 496.942 322.031 495.973 323.245 495.249C324.479 494.505 325.928 494.133 327.592 494.133C329.276 494.133 330.715 494.505 331.91 495.249C333.104 495.973 334.015 496.942 334.641 498.156C335.287 499.351 335.61 500.643 335.61 502.033C335.61 502.268 335.601 502.513 335.581 502.768C335.561 503.003 335.542 503.198 335.522 503.355H323.627C323.705 504.138 323.931 504.824 324.303 505.411C324.694 505.998 325.184 506.449 325.771 506.762C326.378 507.056 327.024 507.203 327.71 507.203C328.493 507.203 329.227 507.017 329.912 506.645C330.617 506.253 331.097 505.744 331.352 505.117L334.729 506.057C334.357 506.84 333.819 507.535 333.114 508.142C332.429 508.749 331.616 509.229 330.676 509.582C329.736 509.915 328.698 510.081 327.563 510.081ZM323.539 500.858H331.587C331.508 500.075 331.283 499.4 330.911 498.832C330.559 498.244 330.089 497.794 329.501 497.481C328.914 497.148 328.258 496.982 327.533 496.982C326.828 496.982 326.182 497.148 325.595 497.481C325.027 497.794 324.557 498.244 324.185 498.832C323.833 499.4 323.617 500.075 323.539 500.858Z" fill="white"/>
</g>
<defs>
<clipPath id="clip0_297_128">
<rect width="420" height="515" fill="white"/>
</clipPath>
</defs>
</svg>
